<?xml version="1.0" encoding="utf-8"?>
<svg xmlns="http://www.w3.org/2000/svg" version="1.2" viewBox="0 0 340 54">
	<title>Title</title>
	<path d="m0 18.409h340" fill="none" stroke="#000" stroke-linejoin="bevel" stroke-width=".3193"/>
	<path d="m0 23.458h340" fill="none" stroke="#000" stroke-linejoin="bevel" stroke-width=".3193"/>
	<path d="m0 28.506h340" fill="none" stroke="#000" stroke-linejoin="bevel" stroke-width=".3193"/>
	<path d="m0 33.554h340" fill="none" stroke="#000" stroke-linejoin="bevel" stroke-width=".3193"/>
	<path d="m0 38.603h340" fill="none" stroke="#000" stroke-linejoin="bevel" stroke-width=".3193"/>
	<path d="m311.11 18.409v20.193" fill="none" stroke="#000" stroke-linejoin="bevel" stroke-width=".80773"/>
	<path d="m158.77 18.409v20.193" fill="none" stroke="#000" stroke-linejoin="bevel" stroke-width=".80773"/>
	<path d="m316.06 43.651h9.6756" fill="none" stroke="#000" stroke-linecap="square" stroke-linejoin="bevel" stroke-width=".80773"/>
	<path d="m287.94 43.651h9.6756" fill="none" stroke="#000" stroke-linecap="square" stroke-linejoin="bevel" stroke-width=".80773"/>
	<path d="m287.94 48.699h9.6756" fill="none" stroke="#000" stroke-linecap="square" stroke-linejoin="bevel" stroke-width=".80773"/>
	<path d="m323.89 42.702v-16.72" fill="none" stroke="#000" stroke-linecap="round" stroke-linejoin="bevel" stroke-width=".65628"/>
	<path d="m295.77 50.274v-30.603" fill="none" stroke="#000" stroke-linecap="round" stroke-linejoin="bevel" stroke-width=".65628"/>
	<path d="m274.52 32.605v-12.934" fill="none" stroke="#000" stroke-linecap="round" stroke-linejoin="bevel" stroke-width=".65628"/>
	<path d="m253.26 40.178v-20.506" fill="none" stroke="#000" stroke-linecap="round" stroke-linejoin="bevel" stroke-width=".65628"/>
	<path d="m232.01 35.129v-15.458" fill="none" stroke="#000" stroke-linecap="round" stroke-linejoin="bevel" stroke-width=".65628"/>
	<path d="m218.72 37.654v-17.982" fill="none" stroke="#000" stroke-linecap="round" stroke-linejoin="bevel" stroke-width=".65628"/>
	<path d="m205.44 35.129v-16.72" fill="none" stroke="#000" stroke-linecap="round" stroke-linejoin="bevel" stroke-width=".65628"/>
	<path d="m171.55 32.605v-16.089" fill="none" stroke="#000" stroke-linecap="round" stroke-linejoin="bevel" stroke-width=".65628"/>
	<path d="m147.1 35.129v-15.458" fill="none" stroke="#000" stroke-linecap="round" stroke-linejoin="bevel" stroke-width=".65628"/>
	<path d="m129.5 32.605v-14.196" fill="none" stroke="#000" stroke-linecap="round" stroke-linejoin="bevel" stroke-width=".65628"/>
	<path d="m101.36 30.081v-15.458" fill="none" stroke="#000" stroke-linecap="round" stroke-linejoin="bevel" stroke-width=".65628"/>
	<path d="m73.207 32.605v-16.089" fill="none" stroke="#000" stroke-linecap="round" stroke-linejoin="bevel" stroke-width=".65628"/>
	<path class="Note" d="m322 40.874c0.63104 0 1.1672 0.16256 1.6094 0.48868 0.39982 0.35742 0.59973 0.8047 0.59973 1.3408 0 0.90465-0.46343 1.7508-1.3883 2.5403-0.94706 0.78855-1.9618 1.1833-3.0451 1.1833-0.63104 0-1.1621-0.16357-1.5932-0.48969-0.40992-0.35742-0.61589-0.8047-0.61589-1.3408 0-0.90466 0.47353-1.7508 1.4206-2.5403 0.92485-0.78854 1.9295-1.1823 3.0128-1.1823" stroke-width="1.0097"/>
	<path class="Note" d="m293.88 48.447c0.63104 0 1.1682 0.16255 1.6094 0.48867 0.39982 0.35742 0.59974 0.8047 0.59974 1.3408 0 0.90466-0.46243 1.7508-1.3883 2.5403-0.94706 0.78854-1.9618 1.1833-3.0451 1.1833-0.63104 0-1.1621-0.16357-1.5932-0.48969-0.40992-0.35742-0.61488-0.80469-0.61488-1.3408 0-0.90466 0.47252-1.7508 1.4196-2.5403 0.92586-0.78855 1.9295-1.1823 3.0128-1.1823" stroke-width="1.0097"/>
	<path class="Note" d="m272.63 30.778c0.63104 0 1.1672 0.16255 1.6084 0.48867 0.39983 0.35742 0.59974 0.8047 0.59974 1.3408 0 0.90466-0.46242 1.7508-1.3883 2.5403-0.94605 0.78854-1.9618 1.1833-3.0441 1.1833-0.63104 0-1.1621-0.16357-1.5942-0.48969-0.40992-0.35742-0.61489-0.8047-0.61489-1.3408 0-0.90465 0.47353-1.7508 1.4196-2.5403 0.92586-0.78855 1.9305-1.1823 3.0138-1.1823" stroke-width="1.0097"/>
	<path class="Note" d="m251.38 38.35c0.63104 0 1.1672 0.16256 1.6094 0.48868 0.39982 0.35742 0.59873 0.8047 0.59873 1.3408 0 0.90465-0.46243 1.7508-1.3883 2.5403-0.94605 0.78855-1.9608 1.1833-3.0441 1.1833-0.63104 0-1.1621-0.16356-1.5932-0.48968-0.41093-0.35742-0.61589-0.8047-0.61589-1.3408 0-0.90466 0.47353-1.7508 1.4206-2.5403 0.92485-0.78854 1.9295-1.1823 3.0128-1.1823" stroke-width="1.0097"/>
	<path class="Note" d="m230.12 33.302c0.63104 0 1.1682 0.16255 1.6094 0.48867 0.39983 0.35742 0.59974 0.8047 0.59974 1.3408 0 0.90466-0.46343 1.7508-1.3883 2.5403-0.94707 0.78854-1.9618 1.1833-3.0451 1.1833-0.63104 0-1.1621-0.16356-1.5932-0.48968-0.40993-0.35742-0.61489-0.8047-0.61489-1.3408 0-0.90466 0.47252-1.7508 1.4196-2.5403 0.92585-0.78854 1.9295-1.1823 3.0128-1.1823" stroke-width="1.0097"/>
	<path class="Note" d="m216.84 35.826c0.63104 0 1.1672 0.16255 1.6084 0.48867 0.39982 0.35742 0.59974 0.8047 0.59974 1.3408 0 0.90466-0.46243 1.7508-1.3883 2.5403-0.94605 0.78854-1.9618 1.1833-3.0451 1.1833-0.63104 0-1.1621-0.16356-1.5932-0.48968-0.40992-0.35742-0.61488-0.8047-0.61488-1.3408 0-0.90466 0.47353-1.7508 1.4196-2.5403 0.92586-0.78854 1.9305-1.1823 3.0138-1.1823" stroke-width="1.0097"/>
	<path class="Note" d="m203.55 33.302c0.63104 0 1.1672 0.16255 1.6094 0.48867 0.39882 0.35742 0.59873 0.8047 0.59873 1.3408 0 0.90466-0.46242 1.7508-1.3883 2.5403-0.94605 0.78854-1.9608 1.1833-3.0441 1.1833-0.63104 0-1.1621-0.16356-1.5932-0.48968-0.41094-0.35742-0.6159-0.8047-0.6159-1.3408 0-0.90466 0.47353-1.7508 1.4206-2.5403 0.92484-0.78854 1.9295-1.1823 3.0128-1.1823" stroke-width="1.0097"/>
	<path class="Note" d="m169.67 30.778c0.63104 0 1.1682 0.16255 1.6094 0.48867 0.39983 0.35742 0.59974 0.8047 0.59974 1.3408 0 0.90466-0.46242 1.7508-1.3883 2.5403-0.94706 0.78854-1.9618 1.1833-3.0451 1.1833-0.63104 0-1.1621-0.16357-1.5932-0.48969-0.40993-0.35742-0.61489-0.8047-0.61489-1.3408 0-0.90465 0.47353-1.7508 1.4196-2.5403 0.92585-0.78855 1.9305-1.1823 3.0128-1.1823" stroke-width="1.0097"/>
	<path class="Note" d="m145.21 33.302c0.63104 0 1.1672 0.16255 1.6094 0.48867 0.39983 0.35742 0.59974 0.8047 0.59974 1.3408 0 0.90466-0.46343 1.7508-1.3883 2.5403-0.94706 0.78854-1.9618 1.1833-3.0451 1.1833-0.63104 0-1.1621-0.16356-1.5932-0.48968-0.40992-0.35742-0.61489-0.8047-0.61489-1.3408 0-0.90466 0.47253-1.7508 1.4196-2.5403 0.92485-0.78854 1.9295-1.1823 3.0128-1.1823" stroke-width="1.0097"/>
	<path class="Note" d="m127.62 30.778c0.63104 0 1.1672 0.16255 1.6094 0.48867 0.39881 0.35742 0.59873 0.8047 0.59873 1.3408 0 0.90466-0.46243 1.7508-1.3883 2.5403-0.94605 0.78854-1.9608 1.1833-3.0441 1.1833-0.63103 0-1.1621-0.16357-1.5932-0.48969-0.41093-0.35742-0.61589-0.8047-0.61589-1.3408 0-0.90465 0.47353-1.7508 1.4196-2.5403 0.92586-0.78855 1.9305-1.1823 3.0138-1.1823" stroke-width="1.0097"/>
	<path class="Note" d="m99.467 28.254c0.63104 0 1.1672 0.16256 1.6084 0.48868 0.39982 0.35742 0.59974 0.8047 0.59974 1.3408 0 0.90466-0.46243 1.7508-1.3883 2.5403-0.94605 0.78854-1.9618 1.1833-3.0451 1.1833-0.63104 0-1.1621-0.16357-1.5932-0.48969-0.40992-0.35742-0.61488-0.8047-0.61488-1.3408 0-0.90465 0.47353-1.7508 1.4196-2.5403 0.92586-0.78855 1.9305-1.1823 3.0138-1.1823" stroke-width="1.0097"/>
	<path class="Note" d="m71.322 30.778c0.63104 0 1.1672 0.16255 1.6094 0.48867 0.39982 0.35742 0.59974 0.8047 0.59974 1.3408 0 0.90466-0.46344 1.7508-1.3883 2.5403-0.94706 0.78854-1.9618 1.1833-3.0451 1.1833-0.63104 0-1.1621-0.16357-1.5932-0.48969-0.40992-0.35742-0.61488-0.8047-0.61488-1.3408 0-0.90465 0.47252-1.7508 1.4196-2.5403 0.92586-0.78855 1.9295-1.1823 3.0128-1.1823" stroke-width="1.0097"/>
	<path class="Clef" d="m10.646 28.38h0.12621c0.0526-0.0111 0.09471-0.0161 0.12621-0.0161 1.4724 0 2.682 0.52098 3.6285 1.5619 0.94656 1.0198 1.4198 2.2132 1.4198 3.5813 0 1.7033-0.69939 3.0865-2.0982 4.1487-0.36812 0.29482-0.85195 0.53109-1.4514 0.7098 0.0736 0.85215 0.11046 1.5407 0.11046 2.0668 0 0.10501-0.01585 0.48868-0.04735 1.152-0.0526 1.2197-0.47333 2.2768-1.2621 3.1703-0.75724 0.88345-1.7038 1.3257-2.8397 1.3257-1.0623 0-1.9667-0.37357-2.7135-1.1207-0.75725-0.76734-1.1359-1.6871-1.1359-2.7604 0-0.56743 0.22081-1.0521 0.66254-1.4509 0.44173-0.38972 0.95716-0.58459 1.5461-0.58459 0.52583 0 0.96756 0.20597 1.3252 0.61589 0.36812 0.37863 0.55218 0.85216 0.55218 1.4196 0 0.50483-0.18406 0.941-0.55218 1.3095-0.36812 0.36751-0.80985 0.55228-1.3252 0.55228-0.21031 0-0.41022-0.0374-0.59954-0.11106 0.57854 0.85215 1.3463 1.2782 2.3033 1.2782 0.90445 0 1.6459-0.36853 2.2244-1.1046 0.61004-0.75725 0.94131-1.6458 0.99391-2.6655 0.021-0.63104 0.0315-0.98947 0.0315-1.0733 0-0.73605-0.02625-1.3408-0.07886-1.8144-0.65204 0.105-1.2357 0.15851-1.7512 0.15851-1.83 0-3.3865-0.72594-4.6697-2.1778-1.2621-1.462-1.8931-3.1966-1.8931-5.2058 0-0.42103 0.03685-0.84711 0.11046-1.2782 0.0841-0.35742 0.18406-0.74613 0.29977-1.1672 0.0631-0.24131 0.24192-0.62599 0.53633-1.151 0.10521-0.15851 0.22354-0.3554 0.355-0.59166 0.13146-0.23727 0.22354-0.39175 0.27604-0.46545 0.12621-0.26352 0.37862-0.62094 0.75724-1.0733 0.10521-0.1151 0.21566-0.24434 0.33137-0.3867 0.11561-0.14135 0.21294-0.25948 0.29179-0.35439 0.07885-0.0949 0.13671-0.16861 0.17356-0.22112 0.03685-0.0525 0.3339-0.39982 0.89133-1.041 0.12621-0.13731 0.25242-0.27866 0.37862-0.42607 0.12621-0.14741 0.22879-0.26554 0.30764-0.3554 0.07885-0.0889 0.13933-0.14943 0.18144-0.18073-0.47333-1.567-0.773-2.819-0.8992-3.7549-0.0842-0.74715-0.12621-1.772-0.12621-3.0764 0-1.146 0.26292-2.2192 0.78875-3.2178 0.50483-1.0309 1.22-1.878 2.1455-2.5403 0.0631-0.0424 0.12621-0.0636 0.18931-0.0636 0.09471 0 0.16306 0.0212 0.20506 0.0636 0.70474 0.85215 1.3147 1.9618 1.83 3.3288 0.52593 1.3671 0.78885 2.613 0.78885 3.7388 0 1.2621-0.29977 2.4454-0.8992 3.55-0.68364 1.1672-1.5671 2.3767-2.6504 3.6277 0.27342 0.86225 0.64154 2.2192 1.1043 4.071m1.6723 9.1808c0.68354-0.25242 1.22-0.6785 1.6091-1.2772 0.42072-0.57854 0.63104-1.2308 0.63104-1.9567 0-0.93595-0.31552-1.7669-0.94656-2.4928-0.65204-0.74614-1.4776-1.1672-2.4768-1.2621 0.56793 2.7766 0.96231 5.1069 1.1832 6.9889m-7.6198-4.5586c0 1.3035 0.52583 2.4504 1.5776 3.4389 1.0728 0.95716 2.2822 1.4357 3.6284 1.4357 0.54693 0 1.0834-0.0424 1.6092-0.12621-0.21031-1.9981-0.62579-4.391-1.2463-7.1787-0.74675 0.0848-1.3409 0.34732-1.7827 0.78955-0.44173 0.46242-0.66264 0.98341-0.66264 1.5619 0 0.99856 0.53643 1.8083 1.6092 2.4292 0.08411 0.0949 0.12621 0.19385 0.12621 0.29987 0 0.105-0.0421 0.19991-0.12621 0.28371-0.08411 0.0949-0.18406 0.14236-0.29977 0.14236-0.0105 0-0.06835-0.0111-0.17356-0.0323-0.75724-0.40992-1.3357-0.93595-1.7353-1.5771-0.38912-0.69465-0.58368-1.3883-0.58368-2.0829 0-0.90466 0.28392-1.7245 0.85185-2.4606 0.58894-0.73604 1.3568-1.2096 2.3033-1.4196-0.36812-1.4731-0.66789-2.6241-0.8993-3.4551-0.21031 0.24131-0.46273 0.52805-0.75724 0.85922-0.29442 0.33117-0.46798 0.53411-0.52058 0.60782-0.47323 0.60983-0.8361 1.0884-1.0885 1.4357-0.45223 0.61993-0.7836 1.151-0.99391 1.5932-0.22081 0.50483-0.41538 1.0511-0.58368 1.6407-0.16831 0.56743-0.25242 1.1722-0.25242 1.8144m6.5785-20.052c-0.98866 0.48363-1.7617 1.1783-2.3191 2.0829-0.57844 0.93595-0.8676 1.9406-0.8676 3.0128 0 0.94706 0.23656 2.2243 0.70989 3.8337 0.94656-1.146 1.6564-2.2031 2.1298-3.1714 0.49423-1.0298 0.74139-2.1031 0.74139-3.2178 0-0.84104-0.13146-1.6882-0.39437-2.5403" stroke-width="1.0097"/>
	<path class="KeySig" d="m29.61 30.193v1.562c0 0.55733 0.02635 0.99956 0.07896 1.3257 0.43112-0.36852 0.74139-0.64214 0.9307-0.82085 0.21041-0.21001 0.42072-0.5018 0.63104-0.87538 0.21041-0.37357 0.31552-0.74412 0.31552-1.1116 0-0.36853-0.07885-0.68455-0.23656-0.94707-0.15781-0.26251-0.36812-0.39477-0.63104-0.39477-0.31552 0-0.57854 0.12116-0.78885 0.36347-0.19981 0.26252-0.29977 0.56239-0.29977 0.8986m-0.8361 3.6136-0.25242-12.006c0.18931-0.105 0.376-0.1575 0.56006-0.1575s0.3655 0.0525 0.54431 0.1575l-0.15781 6.9576c0.53643-0.46343 1.1569-0.69464 1.8616-0.69464 0.50483 0 0.92808 0.21001 1.27 0.63104 0.34177 0.42102 0.51271 0.90465 0.51271 1.4519 0 0.33621-0.11046 0.69868-0.33127 1.0884-0.21041 0.34632-0.43123 0.61993-0.66264 0.81985-0.13671 0.105-0.47323 0.36852-1.0097 0.78854-0.15771 0.11611-0.3444 0.25242-0.56006 0.41093-0.21556 0.15751-0.34965 0.25747-0.40225 0.29987-0.09471 0.0525-0.18406 0.15751-0.26817 0.31502-0.08421 0.1363-0.18931 0.24736-0.31552 0.33117-0.08421 0.0838-0.19194 0.1262-0.3235 0.1262-0.13146 0-0.23919-0.0474-0.3234-0.14135-0.0946-0.0949-0.14196-0.22112-0.14196-0.37862" stroke-width="1.0097"/>
	<path class="KeySig" d="m24.562 20.097v1.5619c0 0.55733 0.02635 0.99957 0.07896 1.3257 0.43113-0.36853 0.74139-0.64215 0.93071-0.82086 0.21041-0.21001 0.42072-0.5018 0.63104-0.87537 0.21041-0.37358 0.31552-0.74412 0.31552-1.1116 0-0.36853-0.07885-0.68455-0.23656-0.94706-0.15781-0.26251-0.36812-0.39478-0.63104-0.39478-0.31552 0-0.57854 0.12116-0.78885 0.36348-0.19981 0.26251-0.29977 0.56238-0.29977 0.8986m-0.8361 3.6136-0.25242-12.006c0.18931-0.10501 0.376-0.15751 0.56006-0.15751s0.3655 0.0525 0.54431 0.15751l-0.15781 6.9576c0.53643-0.46344 1.1569-0.69465 1.8616-0.69465 0.50483 0 0.92808 0.21001 1.27 0.63104 0.34177 0.42103 0.51271 0.90466 0.51271 1.4519 0 0.33622-0.11046 0.69869-0.33127 1.0884-0.21041 0.34631-0.43123 0.61993-0.66264 0.81984-0.13671 0.10501-0.47323 0.36853-1.0097 0.78855-0.15771 0.11611-0.3444 0.25241-0.56006 0.41093-0.21556 0.1575-0.34964 0.25746-0.40225 0.29987-0.09471 0.0525-0.18406 0.1575-0.26817 0.31501-0.08421 0.1363-0.18931 0.24737-0.31552 0.33117-0.08421 0.0838-0.19194 0.12621-0.3235 0.12621-0.13146 0-0.23919-0.0475-0.3234-0.14136-0.09461-0.0949-0.14196-0.22111-0.14196-0.37862" stroke-width="1.0097"/>
	<path class="KeySig" d="m19.513 27.669v1.562c0 0.55733 0.02635 0.99956 0.07896 1.3257 0.43112-0.36853 0.74139-0.64214 0.93071-0.82085 0.21041-0.21001 0.42072-0.50181 0.63104-0.87538 0.21041-0.37357 0.31552-0.74412 0.31552-1.1116 0-0.36852-0.07885-0.68455-0.23656-0.94706-0.15781-0.26251-0.36812-0.39477-0.63104-0.39477-0.31552 0-0.57854 0.12115-0.78885 0.36347-0.19981 0.26251-0.29977 0.56238-0.29977 0.8986m-0.8361 3.6136-0.25242-12.006c0.18931-0.105 0.376-0.15751 0.56006-0.15751s0.3655 0.0525 0.54431 0.15751l-0.15781 6.9576c0.53643-0.46343 1.1569-0.69464 1.8616-0.69464 0.50483 0 0.92808 0.21001 1.27 0.63103 0.34177 0.42103 0.51271 0.90466 0.51271 1.4519 0 0.33621-0.11046 0.69868-0.33127 1.0884-0.21041 0.34631-0.43123 0.61993-0.66264 0.81984-0.13671 0.10501-0.47323 0.36853-1.0097 0.78855-0.15771 0.11611-0.3444 0.25242-0.56006 0.41093-0.21556 0.15751-0.34964 0.25747-0.40225 0.29987-0.09471 0.0525-0.18406 0.15751-0.26817 0.31502-0.08421 0.1363-0.18931 0.24736-0.31552 0.33116-0.08421 0.0838-0.19194 0.12621-0.3235 0.12621-0.13146 0-0.23919-0.0474-0.3234-0.14135-0.09461-0.0949-0.14196-0.22112-0.14196-0.37862" stroke-width="1.0097"/>
	<path class="Rest" d="m46.488 26.928c0-0.24232 0.13671-0.50483 0.41022-0.78855 0.18931-0.21101 0.47848-0.46343 0.8676-0.75724 0.28402-0.18982 0.56268-0.48363 0.8362-0.88345 0.26292-0.37863 0.39437-0.79461 0.39437-1.2469 0-0.52503-0.16831-0.98846-0.50483-1.3883l-0.70989-0.85114c-0.0526-0.0525-0.07895-0.11914-0.07895-0.1979 0-0.0787 0.03685-0.14942 0.11046-0.21303 0.09471-0.0737 0.17356-0.11006 0.23666-0.11006 0.09461 0 0.16821 0.0424 0.22081 0.12621l3.0606 3.6287c0.12621 0.1676 0.18931 0.33622 0.18931 0.50483 0 0.24131-0.13146 0.50483-0.39437 0.78855-0.16831 0.18981-0.44708 0.44223-0.8362 0.75724-0.30502 0.17871-0.59418 0.47353-0.8676 0.88346-0.26302 0.37862-0.39448 0.79359-0.39448 1.2459 0 0.55733 0.15781 1.0258 0.47333 1.4044l1.6881 1.988c0.042 0.0414 0.0736 0.11005 0.09461 0.20496 0 0.0838-0.0315 0.16255-0.09461 0.23626-0.09471 0.0636-0.17356 0.0949-0.23666 0.0949-0.0211 0-0.12621-0.0737-0.31552-0.22112-0.19981-0.15751-0.46283-0.30997-0.78885-0.45738-0.36812-0.1363-0.73089-0.20496-1.0885-0.20496-0.32602 0-0.59419 0.0899-0.8046 0.26857-0.17881 0.18881-0.26817 0.54623-0.26817 1.0723 0 0.79965 0.18931 1.4307 0.56793 1.8931 0.0421 0.0525 0.04735 0.11611 0.01575 0.18981-0.021 0.0525-0.06835 0.0788-0.14196 0.0788-0.0841 0-0.28392-0.23727-0.59944-0.7098-0.33662-0.49473-0.64689-1.0682-0.93081-1.7194-0.30502-0.68455-0.45748-1.2469-0.45748-1.6882 0-0.56844 0.26817-0.85215 0.8045-0.85215 0.62054 0 1.4251 0.21001 2.4138 0.63103 0 0-2.6662-3.2026-2.6662-3.2026-0.13671-0.16861-0.20506-0.33622-0.20506-0.50483" stroke-width="1.0097"/>
	<path class="Beam" d="m231.68 18.409h64.419v2.5242h-64.419v-2.5242" fill-rule="evenodd" stroke-width="1.0097"/>
	<path class="Beam" d="m205.11 17.085 13.94 1.3247v2.5242l-13.94-1.3247v-2.5242" fill-rule="evenodd" stroke-width="1.0097"/>
	<path class="Beam" d="m205.11 20.871 13.94 1.3247v2.5242l-13.94-1.3247v-2.5242" fill-rule="evenodd" stroke-width="1.0097"/>
	<path class="Beam" d="m129.18 17.1 18.248 1.3095v2.5242l-18.248-1.3095v-2.5242" fill-rule="evenodd" stroke-width="1.0097"/>
	<path class="StaffText" d="m7.4263 0.54453c0.3542 0 0.7214 0.0521 1.1016 0.1563 0.3802 0.1041 0.6067 0.1562 0.6797 0.1562 0.2395 0 0.4375-0.1041 0.5937-0.3125 0 0 0.1563 0.0469 0.1563 0.0469l-0.5 1.9531s-0.1719-0.0312-0.1719-0.0312c-0.0625-0.5417-0.2474-0.9531-0.5547-1.2344-0.3073-0.2812-0.7161-0.4219-1.2266-0.4219-0.375 0-0.7239 0.0782-1.0468 0.2344-0.323 0.1563-0.5912 0.362-0.8047 0.6172-0.2136 0.2552-0.3985 0.5338-0.5547 0.8359-0.1563 0.3021-0.2761 0.612-0.3594 0.9297s-0.1432 0.599-0.1797 0.8438c-0.0364 0.2448-0.0547 0.4609-0.0547 0.6484 0 0.6455 0.1745 1.1455 0.5235 1.5005 0.3489 0.354 0.8463 0.531 1.4922 0.531 0.1458 0 0.2786-0.011 0.3984-0.031 0.1198-0.021 0.2214-0.047 0.3047-0.079 0.0833-0.031 0.1588-0.078 0.2266-0.14 0.0677-0.063 0.1223-0.117 0.164-0.164s0.0807-0.112 0.1172-0.196c0.0365-0.083 0.0625-0.151 0.0781-0.203 0.0157-0.052 0.0365-0.127 0.0625-0.226 0.0261-0.099 0.0495-0.17 0.0703-0.211 0.1771-0.6252 0.2657-1.0367 0.2657-1.2346 0-0.1771-0.1615-0.2813-0.4844-0.3125-0.0104 0-0.0313-0.0026-0.0625-0.0078-0.0313-0.0052-0.0677-0.0105-0.1094-0.0157s-0.0781-0.0078-0.1094-0.0078v-0.1562h2.6563v0.1562c-0.3333 0.0209-0.5599 0.0755-0.6797 0.1641-0.1198 0.0885-0.2161 0.2734-0.2891 0.5547l-0.5 1.8436c-0.7395 0.438-1.526 0.656-2.3593 0.656-0.8646 0-1.5599-0.255-2.086-0.765-0.526-0.511-0.789-1.136-0.789-1.8752 0-1.1042 0.4088-2.0808 1.2265-2.9297 0.8177-0.849 1.7526-1.2735 2.8047-1.2735m5.8125 3.2657c-0.125 0-0.2135-0.0287-0.2656-0.086s-0.0912-0.112-0.1172-0.164c-0.026-0.0521-0.0703-0.0782-0.1328-0.0782-0.1771 0-0.4375 0.2865-0.7813 0.8594-0.2187 0.375-0.3984 0.7344-0.539 1.0785-0.1406 0.343-0.3412 0.937-0.6016 1.781h-0.7656l0.8125-2.922c0.1042-0.3646 0.1562-0.625 0.1562-0.7812 0-0.198-0.1145-0.2969-0.3437-0.2969-0.0729 0-0.1875 0.0208-0.3438 0.0625v-0.1875c0.2917-0.0521 0.8073-0.1459 1.5469-0.2813l0.0313 0.0157-0.5313 2.1718c0.0729-0.1771 0.1641-0.3724 0.2735-0.5859 0.1093-0.2136 0.2473-0.4479 0.414-0.7031s0.3568-0.4688 0.5703-0.6407c0.2136-0.1718 0.4193-0.2578 0.6172-0.2578 0.1354 0 0.2474 0.0469 0.336 0.1407 0.0885 0.0937 0.1328 0.2187 0.1328 0.375 0 0.3333-0.1563 0.5-0.4688 0.5m4.1094 2.9527c0.0208 0 0.0521-0.01 0.0937-0.031 0.0417-0.021 0.0938-0.057 0.1563-0.109s0.1146-0.099 0.1562-0.141c0.0417-0.042 0.1068-0.107 0.1954-0.195 0.0885-0.089 0.1536-0.154 0.1953-0.195l0.1093 0.093c-0.3645 0.459-0.6354 0.758-0.8125 0.899-0.177 0.14-0.3645 0.211-0.5625 0.211-0.2708 0-0.4062-0.141-0.4062-0.422 0-0.167 0.0781-0.547 0.2344-1.141-0.448 0.625-0.8073 1.044-1.0782 1.258-0.2708 0.213-0.5833 0.32-0.9375 0.32-0.3229 0-0.5729-0.099-0.75-0.297-0.177-0.198-0.2656-0.474-0.2656-0.828 0-0.51 0.1458-1.031 0.4375-1.5622 0.2917-0.5313 0.6615-0.9688 1.1094-1.3125 0.4479-0.3438 0.8854-0.5157 1.3125-0.5157 0.4479 0 0.7135 0.1927 0.7969 0.5782l0.1093-0.4844 0.0313-0.0313 0.6094-0.0625 0.0625 0.0313c0 0.0312-0.0157 0.1041-0.0469 0.2187-0.5938 2.1563-0.8906 3.3544-0.8906 3.5934 0 0.084 0.0468 0.125 0.1406 0.125m-0.2031-3.1402c0-0.1771-0.0547-0.3204-0.1641-0.4297-0.1094-0.1094-0.2578-0.1641-0.4453-0.1641-0.3646 0-0.7109 0.2109-1.0391 0.6328-0.3281 0.4219-0.5729 0.862-0.7343 1.3203-0.1615 0.4579-0.2422 0.8179-0.2422 1.0779 0 0.219 0.052 0.396 0.1562 0.532 0.1042 0.135 0.2448 0.203 0.4219 0.203 0.3125 0 0.6302-0.18 0.9531-0.539 0.3229-0.36 0.586-0.787 0.7891-1.2817 0.2031-0.4948 0.3047-0.9453 0.3047-1.3515m5.375 0.2656c0-0.0938-0.0703-0.2058-0.211-0.336-0.1406-0.1302-0.2109-0.2682-0.2109-0.414 0-0.1042 0.0338-0.1875 0.1016-0.25 0.0677-0.0625 0.1588-0.0938 0.2734-0.0938 0.1562 0 0.2891 0.0599 0.3984 0.1797 0.1094 0.1198 0.1641 0.2578 0.1641 0.4141 0 0.1875-0.0599 0.4271-0.1797 0.7187-0.1198 0.2917-0.263 0.5573-0.4297 0.7969-0.5208 0.719-0.987 1.313-1.3984 1.781-0.4115 0.469-0.6797 0.703-0.8047 0.703-0.0625 0-0.0938-0.119-0.0938-0.359 0-0.281-0.0234-0.727-0.0703-1.336-0.0468-0.6093-0.0963-1.0859-0.1484-1.4296-0.0625-0.4584-0.1354-0.7552-0.2188-0.8906-0.0833-0.1355-0.2187-0.2032-0.4062-0.2032-0.125 0-0.224 0.0052-0.2969 0.0157v-0.1407c0.2292-0.0416 0.4297-0.0781 0.6016-0.1093 0.1719-0.0313 0.2916-0.0573 0.3594-0.0782 0.0677-0.0208 0.1276-0.0364 0.1796-0.0468 0.0521-0.0105 0.1042-0.0157 0.1563-0.0157 0.1146 0 0.2266 0.3933 0.3359 1.1797 0.1094 0.7865 0.1849 1.6277 0.2266 2.5237l0.2969-0.313c0.3541-0.375 0.6718-0.7966 0.9531-1.2654 0.2812-0.4687 0.4219-0.8125 0.4219-1.0312m4.0156 2.2346 0.1094 0.109c-0.2917 0.344-0.6198 0.61-0.9844 0.797-0.3646 0.188-0.724 0.281-1.0781 0.281-0.3959 0-0.7162-0.125-0.961-0.375s-0.3672-0.578-0.3672-0.984c0-0.49 0.1511-0.9819 0.4532-1.4767 0.302-0.4948 0.6875-0.8984 1.1562-1.2109 0.4688-0.3125 0.9375-0.4688 1.4063-0.4688 0.25 0 0.4453 0.0599 0.5859 0.1797s0.2109 0.2839 0.2109 0.4922c0 0.4375-0.2395 0.8281-0.7187 1.1719-0.4792 0.3437-1.0938 0.5677-1.8438 0.6719 0 0-0.2812 0.0312-0.2812 0.0312-0.0625 0.2705-0.0938 0.4795-0.0938 0.6255 0 0.27 0.086 0.489 0.2579 0.656 0.1718 0.166 0.3984 0.25 0.6796 0.25 0.2188 0 0.4271-0.052 0.625-0.156 0.198-0.105 0.4792-0.303 0.8438-0.594m-2.2344-1.0002c0.3542-0.0834 0.6667-0.1875 0.9375-0.3125s0.4792-0.2474 0.625-0.3672 0.2604-0.25 0.3438-0.3907c0.0833-0.1406 0.138-0.2578 0.164-0.3515 0.0261-0.0938 0.0391-0.1875 0.0391-0.2813 0-0.1146-0.0313-0.2083-0.0938-0.2812s-0.151-0.1094-0.2656-0.1094c-0.25 0-0.5338 0.1641-0.8515 0.4922-0.3178 0.3281-0.5599 0.7161-0.7266 1.1641 0 0-0.1719 0.4375-0.1719 0.4375"/>
	<path class="NoteDot" d="m173.99 31.842c-0.22616-0.22617-0.33924-0.49675-0.33924-0.81177 0-0.31602 0.11308-0.58661 0.33924-0.81278 0.22617-0.22616 0.49675-0.33924 0.81177-0.33924 0.31602 0 0.58358 0.11308 0.8047 0.33924 0.22111 0.22617 0.33117 0.49676 0.33117 0.81278 0 0.31502-0.11006 0.5856-0.33117 0.81177-0.22112 0.22616-0.48868 0.33924-0.8047 0.33924-0.31502 0-0.5856-0.11308-0.81177-0.33924" stroke-width="1.0097"/>
</svg>
