<?xml version="1.0" encoding="utf-8"?>
<svg xmlns="http://www.w3.org/2000/svg" version="1.2" viewBox="0 0 422 40">
	<title>A musical score with the lyrics “Wicked hands have pierced and nailed him, pierced and nailed him to a tree.”</title>
	<path d="m0 17.732h422" fill="none" stroke="#000" stroke-linejoin="bevel" stroke-width=".34526"/>
	<path d="m410.71 16.968v-16.64" fill="none" stroke="#000" stroke-linecap="round" stroke-linejoin="bevel" stroke-width=".64845"/>
	<path d="m396.41 16.798v-13.983" fill="none" stroke="#000" stroke-linecap="round" stroke-linejoin="bevel" stroke-width=".64845"/>
	<path d="m382.28 16.798v-13.983" fill="none" stroke="#000" stroke-linecap="round" stroke-linejoin="bevel" stroke-width=".64845"/>
	<path d="m368.14 16.798v-13.983" fill="none" stroke="#000" stroke-linecap="round" stroke-linejoin="bevel" stroke-width=".64845"/>
	<path d="m345.15 16.798v-13.983" fill="none" stroke="#000" stroke-linecap="round" stroke-linejoin="bevel" stroke-width=".64845"/>
	<path d="m298.71 16.968v-16.64" fill="none" stroke="#000" stroke-linecap="round" stroke-linejoin="bevel" stroke-width=".64845"/>
	<path d="m268.81 16.968v-16.64" fill="none" stroke="#000" stroke-linecap="round" stroke-linejoin="bevel" stroke-width=".64845"/>
	<path d="m218.41 16.798v-16.469" fill="none" stroke="#000" stroke-linecap="round" stroke-linejoin="bevel" stroke-width=".64845"/>
	<path d="m187.94 16.798v-16.469" fill="none" stroke="#000" stroke-linecap="round" stroke-linejoin="bevel" stroke-width=".64845"/>
	<path d="m165.65 16.798v-13.983" fill="none" stroke="#000" stroke-linecap="round" stroke-linejoin="bevel" stroke-width=".64845"/>
	<path d="m140.35 16.798v-13.983" fill="none" stroke="#000" stroke-linecap="round" stroke-linejoin="bevel" stroke-width=".64845"/>
	<path d="m112.74 16.798v-13.983" fill="none" stroke="#000" stroke-linecap="round" stroke-linejoin="bevel" stroke-width=".64845"/>
	<path d="m88.769 16.798v-13.983" fill="none" stroke="#000" stroke-linecap="round" stroke-linejoin="bevel" stroke-width=".64845"/>
	<path d="m48.438 16.968v-16.64" fill="none" stroke="#000" stroke-linecap="round" stroke-linejoin="bevel" stroke-width=".64845"/>
	<path d="m24.021 16.968v-16.64" fill="none" stroke="#000" stroke-linecap="round" stroke-linejoin="bevel" stroke-width=".64845"/>
	<path class="Note" d="m410.41 16.427c0-0.21759-0.0841-0.40405-0.25019-0.55939-0.17714-0.16578-0.37529-0.24862-0.59446-0.24862-0.3853 0-1.1729 0.38844-2.3608 1.1654-1.231 0.78722-1.9815 1.3518-2.2517 1.6937-0.14612 0.17612-0.21917 0.36259-0.21917 0.55939 0 0.21749 0.0881 0.40396 0.2652 0.55939 0.15712 0.16578 0.34927 0.24862 0.57945 0.24862 0.37529 0 1.1719-0.38844 2.3918-1.1654 1.1989-0.77688 1.9395-1.3414 2.2207-1.6937 0.14611-0.16578 0.21917-0.35224 0.21917-0.55939m-1.0328-1.4296c1.1159 0 1.6733 0.47655 1.6733 1.4296 0 0.46611-0.1351 1.01-0.40631 1.6315-0.27121 0.6112-0.63549 1.0773-1.0948 1.3985-1.0008 0.67326-2.2567 1.01-3.7679 1.01-1.1259 0-1.6893-0.47655-1.6893-1.4296 0-0.42474 0.13611-0.96344 0.40632-1.616 0.2612-0.62155 0.62548-1.0929 1.0948-1.414 1.0118-0.67336 2.2728-1.01 3.7839-1.01" stroke-width=".99762"/>
	<path class="Note" d="m394.53 14.998c0.62548 0 1.1569 0.16051 1.5942 0.48172 0.39631 0.35214 0.59446 0.7924 0.59446 1.3208 0 0.89085-0.45835 1.7248-1.3761 2.5017-0.93772 0.77698-1.9445 1.1654-3.0173 1.1654-0.62548 0-1.1519-0.16061-1.5802-0.48172-0.40632-0.35224-0.60947-0.7925-0.60947-1.3208 0-0.89085 0.46936-1.7248 1.4071-2.5017 0.91771-0.77698 1.9135-1.1654 2.9873-1.1654" stroke-width=".99762"/>
	<path class="Note" d="m380.4 14.998c0.62548 0 1.1569 0.16051 1.5952 0.48172 0.3963 0.35214 0.59445 0.7924 0.59445 1.3208 0 0.89085-0.45935 1.7248-1.3761 2.5017-0.93872 0.77698-1.9445 1.1654-3.0183 1.1654-0.62548 0-1.1519-0.16061-1.5792-0.48172-0.40631-0.35224-0.61047-0.7925-0.61047-1.3208 0-0.89085 0.46936-1.7248 1.4081-2.5017 0.9167-0.77698 1.9125-1.1654 2.9863-1.1654" stroke-width=".99762"/>
	<path class="Note" d="m366.28 14.998c0.62548 0 1.1569 0.16051 1.5942 0.48172 0.3963 0.35214 0.59446 0.7924 0.59446 1.3208 0 0.89085-0.45836 1.7248-1.3761 2.5017-0.93773 0.77698-1.9445 1.1654-3.0183 1.1654-0.62548 0-1.1519-0.16061-1.5792-0.48172-0.40631-0.35224-0.60946-0.7925-0.60946-1.3208 0-0.89085 0.46936-1.7248 1.4071-2.5017 0.91771-0.77698 1.9135-1.1654 2.9873-1.1654" stroke-width=".99762"/>
	<path class="Note" d="m343.28 14.998c0.62548 0 1.1569 0.16051 1.5952 0.48172 0.3963 0.35214 0.59445 0.7924 0.59445 1.3208 0 0.89085-0.45935 1.7248-1.3761 2.5017-0.93872 0.77698-1.9445 1.1654-3.0183 1.1654-0.62548 0-1.1519-0.16061-1.5792-0.48172-0.40631-0.35224-0.60947-0.7925-0.60947-1.3208 0-0.89085 0.46836-1.7248 1.4071-2.5017 0.9167-0.77698 1.9125-1.1654 2.9863-1.1654" stroke-width=".99762"/>
	<path class="Note" d="m298.4 16.427c0-0.21759-0.0841-0.40405-0.25019-0.55939-0.17714-0.16578-0.37529-0.24862-0.59446-0.24862-0.3853 0-1.1729 0.38844-2.3608 1.1654-1.231 0.78722-1.9815 1.3518-2.2517 1.6937-0.14612 0.17612-0.21917 0.36259-0.21917 0.55939 0 0.21749 0.0881 0.40396 0.2652 0.55939 0.15712 0.16578 0.34927 0.24862 0.57945 0.24862 0.37529 0 1.1719-0.38844 2.3918-1.1654 1.1989-0.77688 1.9395-1.3414 2.2207-1.6937 0.14611-0.16578 0.21917-0.35224 0.21917-0.55939m-1.0328-1.4296c1.1159 0 1.6733 0.47655 1.6733 1.4296 0 0.46611-0.1351 1.01-0.40631 1.6315-0.27121 0.6112-0.63549 1.0773-1.0948 1.3985-1.0008 0.67326-2.2567 1.01-3.7679 1.01-1.1259 0-1.6893-0.47655-1.6893-1.4296 0-0.42474 0.13611-0.96344 0.40632-1.616 0.2612-0.62155 0.62548-1.0929 1.0948-1.414 1.0118-0.67336 2.2728-1.01 3.7839-1.01" stroke-width=".99762"/>
	<path class="Note" d="m268.51 16.427c0-0.21759-0.0831-0.40405-0.25019-0.55939-0.17714-0.16578-0.37529-0.24862-0.59446-0.24862-0.38529 0-1.1729 0.38844-2.3608 1.1654-1.2299 0.78722-1.9805 1.3518-2.2517 1.6937-0.14611 0.17612-0.21917 0.36259-0.21917 0.55939 0 0.21749 0.0891 0.40396 0.26621 0.55939 0.15612 0.16578 0.34926 0.24862 0.57844 0.24862 0.37529 0 1.1729-0.38844 2.3918-1.1654 1.1989-0.77688 1.9395-1.3414 2.2207-1.6937 0.14612-0.16578 0.21917-0.35224 0.21917-0.55939m-1.0318-1.4296c1.1149 0 1.6723 0.47655 1.6723 1.4296 0 0.46611-0.13511 1.01-0.40632 1.6315-0.27121 0.6112-0.63549 1.0773-1.0948 1.3985-1.0008 0.67326-2.2567 1.01-3.7679 1.01-1.1259 0-1.6893-0.47655-1.6893-1.4296 0-0.42474 0.1361-0.96344 0.40731-1.616 0.2602-0.62155 0.62548-1.0929 1.0938-1.414 1.0118-0.67336 2.2728-1.01 3.7849-1.01" stroke-width=".99762"/>
	<path class="Note" d="m216.55 14.998c0.62548 0 1.1569 0.16051 1.5952 0.48172 0.3963 0.35214 0.59345 0.7924 0.59345 1.3208 0 0.89085-0.45835 1.7248-1.3761 2.5017-0.93772 0.77698-1.9435 1.1654-3.0173 1.1654-0.62548 0-1.1519-0.16061-1.5792-0.48172-0.40731-0.35224-0.61047-0.7925-0.61047-1.3208 0-0.89085 0.46936-1.7248 1.4081-2.5017 0.9167-0.77698 1.9125-1.1654 2.9863-1.1654" stroke-width=".99762"/>
	<path class="Note" d="m186.06 14.998c0.62548 0 1.1569 0.16051 1.5952 0.48172 0.3963 0.35214 0.59345 0.7924 0.59345 1.3208 0 0.89085-0.45835 1.7248-1.3761 2.5017-0.93772 0.77698-1.9435 1.1654-3.0173 1.1654-0.62548 0-1.1519-0.16061-1.5792-0.48172-0.40731-0.35224-0.61047-0.7925-0.61047-1.3208 0-0.89085 0.46936-1.7248 1.4081-2.5017 0.9167-0.77698 1.9125-1.1654 2.9863-1.1654" stroke-width=".99762"/>
	<path class="Note" d="m163.79 14.998c0.62548 0 1.1579 0.16051 1.5952 0.48172 0.3963 0.35214 0.59445 0.7924 0.59445 1.3208 0 0.89085-0.45935 1.7248-1.3761 2.5017-0.93872 0.77698-1.9445 1.1654-3.0183 1.1654-0.62548 0-1.1519-0.16061-1.5792-0.48172-0.40631-0.35224-0.60947-0.7925-0.60947-1.3208 0-0.89085 0.46836-1.7248 1.4071-2.5017 0.9177-0.77698 1.9125-1.1654 2.9863-1.1654" stroke-width=".99762"/>
	<path class="Note" d="m138.49 14.998c0.62548 0 1.1569 0.16051 1.5952 0.48172 0.3963 0.35214 0.59445 0.7924 0.59445 1.3208 0 0.89085-0.45935 1.7248-1.3761 2.5017-0.93872 0.77698-1.9445 1.1654-3.0183 1.1654-0.62548 0-1.1519-0.16061-1.5792-0.48172-0.40631-0.35224-0.61047-0.7925-0.61047-1.3208 0-0.89085 0.46936-1.7248 1.4081-2.5017 0.9167-0.77698 1.9125-1.1654 2.9863-1.1654" stroke-width=".99762"/>
	<path class="Note" d="m110.87 14.998c0.62548 0 1.1579 0.16051 1.5952 0.48172 0.39631 0.35214 0.59446 0.7924 0.59446 1.3208 0 0.89085-0.45936 1.7248-1.3761 2.5017-0.93873 0.77698-1.9445 1.1654-3.0183 1.1654-0.62548 0-1.1519-0.16061-1.5792-0.48172-0.40632-0.35224-0.60947-0.7925-0.60947-1.3208 0-0.89085 0.46836-1.7248 1.4071-2.5017 0.91771-0.77698 1.9125-1.1654 2.9863-1.1654" stroke-width=".99762"/>
	<path class="Note" d="m86.896 14.998c0.62548 0 1.1569 0.16051 1.5952 0.48172 0.3963 0.35214 0.59446 0.7924 0.59446 1.3208 0 0.89085-0.45935 1.7248-1.3761 2.5017-0.93872 0.77698-1.9445 1.1654-3.0183 1.1654-0.62548 0-1.1519-0.16061-1.5792-0.48172-0.40631-0.35224-0.60947-0.7925-0.60947-1.3208 0-0.89085 0.46836-1.7248 1.4071-2.5017 0.91671-0.77698 1.9125-1.1654 2.9863-1.1654" stroke-width=".99762"/>
	<path class="Note" d="m48.132 16.427c0-0.21759-0.08346-0.40405-0.25019-0.55939-0.17724-0.16578-0.37529-0.24862-0.59426-0.24862-0.3857 0-1.1728 0.38844-2.3612 1.1654-1.23 0.78722-1.9806 1.3518-2.2517 1.6937-0.14591 0.17612-0.21887 0.36259-0.21887 0.55939 0 0.21749 0.08857 0.40396 0.2658 0.55939 0.15642 0.16578 0.34927 0.24862 0.57855 0.24862 0.37529 0 1.1728-0.38844 2.3925-1.1654 1.1988-0.77688 1.939-1.3414 2.2204-1.6937 0.14591-0.16578 0.21897-0.35224 0.21897-0.55939m-1.0321-1.4296c1.1155 0 1.6732 0.47655 1.6732 1.4296 0 0.46611-0.1355 1.01-0.40661 1.6315-0.27101 0.6112-0.63589 1.0773-1.0945 1.3985-1.0008 0.67326-2.2569 1.01-3.7685 1.01-1.1259 0-1.6888-0.47655-1.6888-1.4296 0-0.42474 0.1355-0.96344 0.40651-1.616 0.2606-0.62155 0.62548-1.0929 1.0946-1.414 1.0112-0.67336 2.2726-1.01 3.7841-1.01" stroke-width=".99762"/>
	<path class="Note" d="m23.715 16.427c0-0.21759-0.08336-0.40405-0.25019-0.55939-0.17714-0.16578-0.37529-0.24862-0.59416-0.24862-0.3857 0-1.1728 0.38844-2.3612 1.1654-1.23 0.78722-1.9806 1.3518-2.2517 1.6937-0.14591 0.17612-0.21887 0.36259-0.21887 0.55939 0 0.21749 0.08857 0.40396 0.2658 0.55939 0.15632 0.16578 0.34927 0.24862 0.57855 0.24862 0.37529 0 1.1728-0.38844 2.3924-1.1654 1.1989-0.77688 1.939-1.3414 2.2205-1.6937 0.14591-0.16578 0.21887-0.35224 0.21887-0.55939m-1.032-1.4296c1.1155 0 1.6732 0.47655 1.6732 1.4296 0 0.46611-0.1355 1.01-0.40661 1.6315-0.27101 0.6112-0.63589 1.0773-1.0945 1.3985-1.0008 0.67326-2.2569 1.01-3.7686 1.01-1.1259 0-1.6888-0.47655-1.6888-1.4296 0-0.42474 0.1356-0.96344 0.40661-1.616 0.2606-0.62155 0.62548-1.0929 1.0945-1.414 1.0113-0.67336 2.2726-1.01 3.7842-1.01" stroke-width=".99762"/>
	<path class="Beam" d="m344.83 1.5725h51.906v2.4862h-51.906v-2.4862" fill-rule="evenodd" stroke-width=".99762"/>
	<path class="Beam" d="m88.439 1.5725h77.538v2.4862h-77.538v-2.4862" fill-rule="evenodd" stroke-width=".99762"/>
	<path class="Lyrics" d="m401.58 32.697v0.32629h-1.1098v3.1391c0 0.3421 0.044 0.59072 0.1331 0.74586 0.0881 0.15514 0.23718 0.23271 0.44534 0.23271 0.22918 0 0.44835-0.12928 0.65651-0.38784l0.14111 0.12431c-0.35428 0.56884-0.79262 0.85425-1.313 0.85425-0.6575 0-0.98576-0.46641-0.98576-1.3982v-3.3101h-0.57844c-0.031-0.02069-0.047-0.04147-0.047-0.06216 0-0.04147 0.011-0.0725 0.031-0.09318 0.021-0.02079 0.0631-0.04923 0.12509-0.08553 0.0631-0.0362 0.13911-0.08801 0.22718-0.15534 0.0891-0.06732 0.21116-0.19422 0.36728-0.38068 0.15612-0.18646 0.32325-0.40923 0.50039-0.66819 0.12509-0.17612 0.19815-0.27974 0.21917-0.31077 0.052 0 0.0781 0.04664 0.0781 0.13982v1.2897h1.1098m3.5818 0.96335c-0.11509 0-0.2532-0.06991-0.41432-0.20974-0.16212-0.13982-0.26921-0.20974-0.32125-0.20974-0.14611 0-0.31024 0.1087-0.49238 0.32629-0.18214 0.21749-0.27321 0.4143-0.27321 0.59042v2.4712c0 0.32022 0.062 0.53602 0.18715 0.64442 0.12509 0.1084 0.37529 0.16807 0.75058 0.179v0.17105h-2.643v-0.17105c0.35527-0.06265 0.57344-0.13525 0.65751-0.21779 0.0831-0.08254 0.12509-0.26453 0.12509-0.54398v-2.7503c0-0.23828-0.029-0.40922-0.0861-0.51275-0.0571-0.10362-0.15412-0.15544-0.28923-0.15544-0.11509 0-0.24519 0.01551-0.3913 0.04664v-0.17095c0.59446-0.17612 1.1419-0.36258 1.6423-0.55939l0.047 0.01551v0.97896c0.27021-0.37293 0.50239-0.63189 0.69554-0.77688 0.19315-0.14509 0.40431-0.21759 0.63349-0.21759 0.18714 0 0.33325 0.05181 0.43733 0.15544 0.10408 0.10352 0.15612 0.24335 0.15612 0.41947 0 0.15544-0.036 0.27716-0.10908 0.36517-0.0731 0.08811-0.17714 0.13207-0.31224 0.13207m1.5322 0.93272c0.021 0.45547 0.0861 0.84431 0.19515 1.1655 0.11008 0.32022 0.25319 0.56387 0.43033 0.72994 0.17714 0.16608 0.35427 0.28243 0.53141 0.34906 0.17714 0.06762 0.36528 0.10144 0.56343 0.10144 0.35428 0 0.66151-0.08851 0.92171-0.26453 0.26121-0.17602 0.52141-0.46541 0.78261-0.87016 0 0 0.18714 0.07856 0.18714 0.07856-0.22917 0.60066-0.54742 1.0591-0.95373 1.3744-0.40632 0.31624-0.87067 0.47436-1.3921 0.47436-0.62548 0-1.1229-0.22276-1.4932-0.66829-0.36928-0.44552-0.55442-1.0412-0.55442-1.7871 0-0.80751 0.21316-1.4579 0.64049-1.95 0.42733-0.49207 0.97976-0.7381 1.6573-0.7381 0.55342 0 0.98275 0.16578 1.291 0.49724 0.30724 0.33146 0.50239 0.83387 0.58545 1.5076h-3.3926m0.031-0.32669h2.2357c-0.0721-0.47655-0.18415-0.80542-0.33526-0.98672-0.15112-0.18129-0.39931-0.27189-0.74358-0.27189-0.6565 0-1.0418 0.41957-1.1569 1.2586m4.8477 0.32669c0.021 0.45547 0.0861 0.84431 0.19515 1.1655 0.11008 0.32022 0.25319 0.56387 0.43033 0.72994 0.17714 0.16608 0.35427 0.28243 0.53141 0.34906 0.17714 0.06762 0.36528 0.10144 0.56343 0.10144 0.35428 0 0.66151-0.08851 0.92171-0.26453 0.2612-0.17602 0.5214-0.46541 0.78261-0.87016 0 0 0.18714 0.07856 0.18714 0.07856-0.22918 0.60066-0.54742 1.0591-0.95373 1.3744-0.40632 0.31624-0.87068 0.47436-1.3921 0.47436-0.62548 0-1.1229-0.22276-1.4932-0.66829-0.36928-0.44552-0.55442-1.0412-0.55442-1.7871 0-0.80751 0.21316-1.4579 0.64049-1.95 0.42733-0.49207 0.97975-0.7381 1.6573-0.7381 0.55342 0 0.98275 0.16578 1.291 0.49724 0.30724 0.33146 0.50239 0.83387 0.58545 1.5076h-3.3926m0.031-0.32669h2.2357c-0.072-0.47655-0.18414-0.80542-0.33525-0.98672-0.15112-0.18129-0.39931-0.27189-0.74358-0.27189-0.6565 0-1.0418 0.41957-1.1569 1.2586m5.16 2.2689c0.16713 0 0.31024 0.06166 0.43033 0.18597 0.12009 0.12431 0.18014 0.2695 0.18014 0.43558 0 0.15514-0.06 0.29238-0.18014 0.41171-0.12009 0.11934-0.26821 0.179-0.44535 0.179-0.15712 0-0.29522-0.05967-0.41431-0.179-0.1201-0.11934-0.18014-0.25658-0.18014-0.41171 0-0.16608 0.062-0.31127 0.18714-0.43558 0.1251-0.12431 0.26621-0.18597 0.42233-0.18597" stroke-width=".99762"/>
	<path class="Lyrics" d="m391.32 36.535c0-0.12431 0.013-0.24365 0.039-0.35801 0.026-0.11337 0.0761-0.21978 0.14911-0.31823 0.0731-0.09846 0.14311-0.18597 0.21117-0.26453 0.067-0.07757 0.16612-0.15713 0.29622-0.24066 0.13111-0.08254 0.24019-0.15215 0.32926-0.20983 0.0881-0.05668 0.22317-0.12431 0.40631-0.20188 0.18214-0.07757 0.32025-0.13425 0.41432-0.17105 0.0941-0.0358 0.24219-0.09547 0.44534-0.17801 0.20316-0.08353 0.35728-0.14022 0.46136-0.17105v-0.66839c0-0.60086-0.28122-0.90129-0.84465-0.90129-0.21817 0-0.40632 0.05181-0.56244 0.15544-0.15612 0.10352-0.23518 0.2331-0.23518 0.38844 0 0.05181 0.011 0.12948 0.032 0.2331 0.021 0.10352 0.031 0.17095 0.031 0.20198 0 0.12431-0.05 0.23052-0.14811 0.31853-0.0991 0.08811-0.21717 0.13207-0.35227 0.13207-0.1251 0-0.23418-0.04655-0.32826-0.13982-0.0941-0.09318-0.1411-0.20198-0.1411-0.32629 0-0.3419 0.17713-0.63189 0.5314-0.87016 0.35528-0.23828 0.79261-0.35741 1.314-0.35741 0.60446 0 1.0218 0.14241 1.251 0.42732 0.22918 0.28482 0.34427 0.72258 0.34427 1.313v2.1292c0 0.23768 0.023 0.40077 0.07 0.48928 0.047 0.08752 0.1331 0.13226 0.2582 0.13226 0.15612 0 0.31824-0.06762 0.48437-0.20188v0.29436c-0.19815 0.21779-0.36728 0.36597-0.50839 0.44354-0.14011 0.07757-0.30423 0.11635-0.49238 0.11635-0.21917 0-0.38329-0.06464-0.49238-0.19392-0.10908-0.13028-0.18014-0.34011-0.21116-0.6295-0.62548 0.54895-1.1569 0.82342-1.5952 0.82342-0.34326 0-0.62248-0.11138-0.83664-0.33414-0.21317-0.22276-0.32025-0.51016-0.32025-0.86221m2.7521-0.27945v-1.5703c-0.66752 0.23867-1.1309 0.46939-1.3921 0.69215-0.2602 0.22276-0.3903 0.49425-0.3903 0.81547 0 0.30033 0.073 0.52309 0.21916 0.66829 0.14512 0.14519 0.30224 0.21779 0.46837 0.21779 0.25019 0 0.51639-0.08353 0.79761-0.24862 0.1251-0.0726 0.20616-0.14519 0.24219-0.21779 0.037-0.0726 0.055-0.19193 0.055-0.35702" stroke-width=".99762"/>
	<path class="Lyrics" d="m377.9 32.697v0.32629h-1.1108v3.1391c0 0.3421 0.045 0.59072 0.1331 0.74586 0.0891 0.15514 0.23718 0.23271 0.44534 0.23271 0.23018 0 0.44835-0.12928 0.65751-0.38784l0.14011 0.12431c-0.35428 0.56884-0.79161 0.85425-1.313 0.85425-0.6565 0-0.98576-0.46641-0.98576-1.3982v-3.3101h-0.57844c-0.031-0.02069-0.047-0.04147-0.047-0.06216 0-0.04147 0.011-0.0725 0.032-0.09318 0.02-0.02079 0.062-0.04923 0.12509-0.08553 0.062-0.0362 0.13811-0.08801 0.22618-0.15534 0.0891-0.06732 0.21116-0.19422 0.36728-0.38068 0.15712-0.18646 0.32325-0.40923 0.50039-0.66819 0.12509-0.17612 0.19815-0.27974 0.21916-0.31077 0.052 0 0.0781 0.04664 0.0781 0.13982v1.2897h1.1108m2.9703-0.1088c0.70955 0 1.29 0.2331 1.7443 0.69921 0.45335 0.46621 0.67953 1.057 0.67953 1.7711 0 0.7568-0.23418 1.3913-0.70355 1.9034-0.46936 0.51315-1.0478 0.76972-1.7353 0.76972-0.68853 0-1.262-0.24663-1.7203-0.7379-0.45835-0.49226-0.68753-1.1059-0.68753-1.8418 0-0.7558 0.22317-1.3725 0.67152-1.8489 0.44835-0.47655 1.0328-0.71483 1.7514-0.71483m-1.4381 2.0357c0 0.76674 0.14311 1.4221 0.43033 1.9651 0.28622 0.54398 0.65851 0.81646 1.1179 0.81646 0.41632 0 0.74258-0.17403 0.97676-0.5211 0.23518-0.34707 0.35227-0.82541 0.35227-1.437 0-0.74586-0.14912-1.3545-0.44535-1.8258-0.29722-0.47138-0.67552-0.70707-1.1339-0.70707-0.3863 0-0.69854 0.15544-0.93872 0.46621-0.23919 0.31077-0.35928 0.72507-0.35928 1.2432" stroke-width=".99762"/>
	<path class="Lyrics" d="m358.38 33.862v2.642c0 0.38287 0.045 0.62851 0.1331 0.7379 0.0891 0.1084 0.29423 0.17801 0.61748 0.20983v0.17105h-2.3768v-0.17105c0.31324-0.04176 0.50839-0.11436 0.58645-0.21779 0.0781-0.10342 0.11809-0.34707 0.11809-0.72994v-5.1438c0-0.23828-0.032-0.39361-0.0941-0.46611-0.063-0.0725-0.19815-0.1088-0.40632-0.1088-0.053 0-0.11508 0.0052-0.18814 0.01551v-0.17085c0.5214-0.13475 1.0428-0.29526 1.5642-0.48172l0.046 0.03102v3.3253c0.25019-0.32112 0.50339-0.55422 0.75858-0.69921 0.2552-0.14509 0.54442-0.21759 0.86767-0.21759 0.89669 0 1.345 0.58008 1.345 1.7403v2.1759c0 0.38287 0.037 0.62354 0.11008 0.72199 0.0721 0.09846 0.2602 0.17403 0.56244 0.22574v0.17105h-2.3458v-0.17105c0.32325-0.02089 0.52941-0.09149 0.61748-0.20983 0.0891-0.11934 0.1331-0.36497 0.1331-0.7379v-2.16c0-0.77728-0.27621-1.1657-0.82864-1.1657-0.20816 0-0.40631 0.0543-0.59446 0.16309-0.18714 0.1088-0.3953 0.28233-0.62548 0.52061m4.4254-0.54388c-0.16613 0-0.32325 0.01034-0.46836 0.03102v-0.15534c0.51039-0.14509 1.0788-0.34707 1.7043-0.60603l0.047 0.03112v3.8851c0 0.39282 0.046 0.64442 0.14011 0.75282 0.0941 0.10939 0.31824 0.17403 0.67251 0.19492v0.17105h-2.611v-0.17105c0.3853-0.02089 0.62749-0.08553 0.72656-0.19492 0.0991-0.1084 0.14912-0.36 0.14912-0.75282v-2.5333c0-0.23828-0.029-0.40654-0.0861-0.505-0.058-0.09836-0.14911-0.14758-0.27421-0.14758m0.71955-3.1699c0.16713 0 0.30524 0.0544 0.41432 0.16309 0.10909 0.1088 0.16413 0.24086 0.16413 0.3963 0 0.15534-0.055 0.2874-0.16413 0.3962-0.10908 0.1088-0.24719 0.16319-0.41432 0.16319-0.15612 0-0.28622-0.0544-0.3913-0.16319-0.10408-0.1088-0.15612-0.24086-0.15612-0.3962 0-0.15544 0.055-0.2875 0.16413-0.3963 0.11008-0.1087 0.23718-0.16309 0.38329-0.16309m1.7824 3.1388v-0.18646c0.53241-0.15534 1.0478-0.32629 1.5482-0.51275l0.0781 0.03112v0.83904c0.44834-0.35224 0.7846-0.58525 1.0088-0.69922 0.22417-0.11397 0.45635-0.17095 0.69553-0.17095 0.57344 0 0.95974 0.31594 1.1579 0.94783 0.57345-0.63189 1.1729-0.94783 1.7984-0.94783 0.85466 0 1.282 0.65267 1.282 1.9581v2.2525c0 0.40475 0.15612 0.61657 0.46936 0.63746l0.28122 0.01591v0.17105h-2.4079v-0.17105c0.32225-0.03182 0.52641-0.09149 0.60947-0.179 0.0831-0.08851 0.1251-0.2874 0.1251-0.59867v-2.2992c0-0.44552-0.06-0.7563-0.18014-0.93242-0.1201-0.17612-0.33626-0.26413-0.6485-0.26413-0.49038 0-0.89169 0.22266-1.2039 0.66809v2.7352c0 0.3411 0.054 0.57182 0.16413 0.69116 0.10908 0.11934 0.32024 0.179 0.63348 0.179v0.17105h-2.4709v-0.17105c0.31224-0.02089 0.5154-0.07757 0.60947-0.17105 0.0941-0.09348 0.14111-0.29039 0.14111-0.59072v-2.3619c0-0.76654-0.24019-1.1498-0.71955-1.1498-0.20816 0-0.44034 0.05171-0.69554 0.15534-0.2552 0.10362-0.46136 0.2693-0.61748 0.49724v3.061c0 0.20685 0.052 0.35006 0.15612 0.42762 0.10408 0.07757 0.30224 0.12132 0.59446 0.13226v0.17105h-2.4399v-0.17105c0.31324 0 0.5184-0.05171 0.61748-0.15613 0.0991-0.10342 0.14911-0.3053 0.14911-0.60563v-2.7503c0-0.25896-0.026-0.44025-0.0781-0.54388-0.053-0.10362-0.15211-0.15534-0.29723-0.15534-0.11508 0-0.23518 0.01551-0.36027 0.04655" stroke-width=".99762"/>
	<path class="Lyrics" d="m329.09 33.256v-0.18646c0.54142-0.15544 1.0478-0.31594 1.5162-0.48172l0.0791 0.01551v0.85465c0.37529-0.3418 0.67152-0.57232 0.89069-0.69146s0.45335-0.17871 0.70354-0.17871c0.40731 0 0.72456 0.14241 0.95374 0.42732 0.23017 0.28482 0.34426 0.68629 0.34426 1.2042v2.5174c0 0.2695 0.044 0.4505 0.1331 0.54398s0.26821 0.15016 0.53942 0.17105v0.17105h-2.2828v-0.17105c0.28122-0.02089 0.46636-0.09348 0.55443-0.21779 0.0891-0.12431 0.1331-0.35702 0.1331-0.69912v-2.2844c0-0.71483-0.2652-1.0721-0.79761-1.0721-0.18715 0-0.35628 0.04137-0.5074 0.12431-0.15111 0.08284-0.36227 0.24862-0.63348 0.49724v3.092c0 0.1969 0.052 0.33414 0.15612 0.41171 0.10408 0.07757 0.29723 0.12729 0.57844 0.14818v0.17105h-2.3458v-0.17105c0.28221-0.02089 0.46736-0.08354 0.55542-0.18696 0.0891-0.10343 0.13311-0.31624 0.13311-0.63646v-2.7198c0-0.2693-0.029-0.45318-0.0861-0.55164-0.057-0.09836-0.16413-0.14758-0.32025-0.14758-0.1361 0-0.23518 0.01551-0.29723 0.04664m5.5513 3.2789c0-0.12431 0.013-0.24365 0.039-0.35801 0.026-0.11337 0.0751-0.21978 0.14811-0.31823 0.0731-0.09846 0.14311-0.18597 0.21117-0.26453 0.0681-0.07757 0.16713-0.15713 0.29723-0.24066 0.1301-0.08254 0.24018-0.15216 0.32825-0.20984 0.0891-0.05668 0.22417-0.12431 0.40631-0.20188 0.18314-0.07757 0.32125-0.13425 0.41432-0.17105 0.0941-0.0358 0.24319-0.09547 0.44634-0.17801 0.20316-0.08354 0.35628-0.14022 0.46136-0.17105v-0.66839c0-0.60086-0.28222-0.90129-0.84465-0.90129-0.21917 0-0.40631 0.05181-0.56343 0.15544-0.15612 0.10353-0.23419 0.2331-0.23419 0.38844 0 0.05181 0.01 0.12948 0.031 0.2331 0.021 0.10352 0.032 0.17095 0.032 0.20198 0 0.12431-0.05 0.23052-0.14911 0.31853-0.0991 0.08811-0.21617 0.13207-0.35127 0.13207-0.1251 0-0.23518-0.04655-0.32926-0.13982-0.0931-0.09318-0.1401-0.20198-0.1401-0.32629 0-0.3419 0.17713-0.63189 0.53141-0.87016 0.35427-0.23828 0.79261-0.35741 1.314-0.35741 0.60446 0 1.0208 0.14241 1.251 0.42732 0.22918 0.28482 0.34327 0.72258 0.34327 1.313v2.1292c0 0.23768 0.024 0.40077 0.0711 0.48928 0.046 0.08752 0.1321 0.13226 0.2572 0.13226 0.15712 0 0.31824-0.06762 0.48537-0.20188v0.29436c-0.19815 0.21779-0.36728 0.36597-0.50839 0.44354-0.14111 0.07757-0.30523 0.11635-0.49238 0.11635-0.21917 0-0.38329-0.06464-0.49238-0.19392-0.11008-0.13028-0.18014-0.34011-0.21116-0.6295-0.62548 0.54895-1.1579 0.82342-1.5952 0.82342-0.34426 0-0.62248-0.11138-0.83664-0.33414-0.21417-0.22276-0.32025-0.51016-0.32025-0.86221m2.7521-0.27945v-1.5703c-0.66751 0.23867-1.1319 0.46939-1.3921 0.69215-0.2602 0.22276-0.3913 0.49426-0.3913 0.81547 0 0.30033 0.073 0.52309 0.21917 0.66829 0.14611 0.14519 0.30223 0.21779 0.46936 0.21779 0.25019 0 0.51639-0.08353 0.79761-0.24862 0.1251-0.0726 0.20616-0.14519 0.24219-0.21779 0.036-0.0726 0.055-0.19193 0.055-0.35702m2.4389-2.9373c-0.16713 0-0.32325 0.01034-0.46936 0.03102v-0.15534c0.51139-0.14509 1.0798-0.34707 1.7053-0.60603l0.046 0.03112v3.8851c0 0.39282 0.047 0.64442 0.1411 0.75282 0.0941 0.10939 0.31825 0.17403 0.67252 0.19492v0.17105h-2.611v-0.17105c0.3853-0.02089 0.62749-0.08553 0.72656-0.19492 0.0991-0.1084 0.14912-0.36 0.14912-0.75282v-2.5333c0-0.23828-0.029-0.40654-0.0861-0.50499-0.058-0.09836-0.14911-0.14758-0.27421-0.14758m0.71955-3.1699c0.16713 0 0.30524 0.05439 0.41432 0.16309 0.10909 0.1088 0.16413 0.24086 0.16413 0.3963 0 0.15534-0.055 0.2874-0.16413 0.3962-0.10908 0.1088-0.24719 0.16319-0.41432 0.16319-0.15612 0-0.28722-0.05439-0.3913-0.16319-0.10408-0.1088-0.15612-0.24086-0.15612-0.3962 0-0.15544 0.055-0.2875 0.16413-0.3963 0.10908-0.1087 0.23718-0.16309 0.38329-0.16309m1.7514 0.65257v-0.17085c0.72956-0.17612 1.313-0.33673 1.7514-0.48172l0.047 0.03102v6.5266c0 0.30033 0.049 0.49426 0.14811 0.58276 0.0991 0.08752 0.32625 0.14221 0.68053 0.1631v0.17105h-2.611v-0.17105c0.35428-0.02089 0.58546-0.08354 0.69554-0.18696 0.10908-0.10343 0.16413-0.30033 0.16413-0.59072v-5.2206c0-0.25896-0.034-0.43508-0.10208-0.52836-0.067-0.09318-0.19015-0.13982-0.36728-0.13982-0.14612 0-0.28122 0.0052-0.40632 0.01551m3.7839 3.7918c0.021 0.45547 0.0861 0.84431 0.19515 1.1655 0.11008 0.32022 0.25319 0.56387 0.43033 0.72994 0.17714 0.16608 0.35427 0.28243 0.53141 0.34906 0.17713 0.06762 0.36528 0.10144 0.56343 0.10144 0.35427 0 0.66151-0.08851 0.92271-0.26453 0.2602-0.17602 0.5214-0.46541 0.7816-0.87016 0 0 0.18815 0.07856 0.18815 0.07856-0.23018 0.60066-0.54742 1.0591-0.95474 1.3744-0.40631 0.31624-0.86967 0.47436-1.3911 0.47436-0.62548 0-1.1239-0.22276-1.4932-0.66829-0.37028-0.44552-0.55543-1.0412-0.55543-1.7871 0-0.80751 0.21317-1.4579 0.6415-1.95 0.42733-0.49206 0.97975-0.7381 1.6573-0.7381 0.55242 0 0.98275 0.16578 1.29 0.49724s0.50239 0.83387 0.58645 1.5076h-3.3936m0.031-0.32668h2.2367c-0.073-0.47655-0.18514-0.80542-0.33626-0.98672-0.15111-0.18129-0.3993-0.27189-0.74257-0.27189-0.6575 0-1.0428 0.41957-1.1579 1.2586m7.5528 3.4652-0.047-0.03083v-0.71503c-0.35427 0.49724-0.82363 0.74586-1.4071 0.74586-0.61447 0-1.1078-0.21779-1.4771-0.65238-0.37028-0.43558-0.55543-1.0054-0.55543-1.7095 0-0.76674 0.22418-1.4219 0.67252-1.9658 0.44835-0.54388 0.98476-0.81577 1.6102-0.81577 0.39631 0 0.7816 0.16578 1.1569 0.49724v-1.7248c0-0.22783-0.033-0.3781-0.10108-0.4506-0.068-0.0725-0.20115-0.1088-0.3993-0.1088h-0.2502v-0.17085c0.66752-0.17612 1.2099-0.33673 1.6263-0.48172l0.047 0.03102v6.1845c0 0.24862 0.032 0.4147 0.0941 0.49724 0.063 0.08254 0.19314 0.12431 0.3913 0.12431 0.041 0 0.12509-5e-3 0.25019-0.01591v0.17105s-1.6112 0.59072-1.6112 0.59072m-1.0318-0.59072c0.28122 0 0.5164-0.07757 0.70355-0.23271 0.18814-0.15514 0.28121-0.29536 0.28121-0.41967v-2.4863c0-0.29009-0.11409-0.54388-0.34326-0.76137-0.23018-0.21759-0.49038-0.32639-0.7826-0.32639-0.41633 0-0.75058 0.18388-1.0008 0.55164-0.25019 0.36776-0.37528 0.86241-0.37528 1.484 0 0.66331 0.1411 1.1944 0.42232 1.5931 0.28222 0.39878 0.6465 0.59768 1.0948 0.59768" stroke-width=".99762"/>
	<path class="Lyrics" d="m288.02 36.535c0-0.12431 0.013-0.24365 0.039-0.35801 0.026-0.11337 0.0751-0.21978 0.14811-0.31823 0.0731-0.09846 0.14411-0.18597 0.21116-0.26453 0.0681-0.07757 0.16713-0.15713 0.29723-0.24066 0.1301-0.08254 0.24019-0.15215 0.32825-0.20983 0.0891-0.05668 0.22418-0.12431 0.40732-0.20188 0.18214-0.07757 0.32025-0.13425 0.41432-0.17105 0.0931-0.0358 0.24218-0.09547 0.44534-0.17801 0.20316-0.08353 0.35728-0.14022 0.46136-0.17105v-0.66839c0-0.60086-0.28122-0.90129-0.84465-0.90129-0.21917 0-0.40632 0.05181-0.56244 0.15544-0.15712 0.10352-0.23518 0.2331-0.23518 0.38844 0 0.05181 0.011 0.12948 0.031 0.2331 0.021 0.10352 0.032 0.17095 0.032 0.20198 0 0.12431-0.05 0.23052-0.14912 0.31853-0.0991 0.08811-0.21616 0.13207-0.35127 0.13207-0.12509 0-0.23518-0.04655-0.32825-0.13982-0.0941-0.09318-0.14111-0.20198-0.14111-0.32629 0-0.3419 0.17714-0.63189 0.53141-0.87016 0.35427-0.23828 0.79261-0.35741 1.314-0.35741 0.60447 0 1.0218 0.14241 1.251 0.42732 0.22917 0.28482 0.34326 0.72258 0.34326 1.313v2.1292c0 0.23768 0.024 0.40077 0.0711 0.48928 0.047 0.08752 0.1331 0.13226 0.2582 0.13226 0.15612 0 0.31724-0.06762 0.48437-0.20188v0.29436c-0.19815 0.21779-0.36728 0.36597-0.50839 0.44354-0.14011 0.07757-0.30524 0.11635-0.49238 0.11635-0.21917 0-0.3833-0.06464-0.49238-0.19392-0.11009-0.13028-0.18014-0.34011-0.21116-0.6295-0.62549 0.54895-1.1569 0.82342-1.5952 0.82342-0.34427 0-0.62248-0.11138-0.83665-0.33414-0.21316-0.22276-0.32024-0.51016-0.32024-0.86221m2.7521-0.27945v-1.5703c-0.66752 0.23867-1.1309 0.46939-1.3921 0.69215-0.2602 0.22276-0.3903 0.49425-0.3903 0.81547 0 0.30033 0.0731 0.52309 0.21817 0.66829 0.14611 0.14519 0.30223 0.21779 0.46936 0.21779 0.2502 0 0.5164-0.08353 0.79762-0.24862 0.12509-0.0726 0.20616-0.14519 0.24218-0.21779 0.037-0.0726 0.055-0.19193 0.055-0.35702m1.8604-2.9994v-0.18646c0.54242-0.15544 1.0478-0.31594 1.5172-0.48172l0.0781 0.01551v0.85465c0.37529-0.3418 0.67252-0.57232 0.89168-0.69146 0.21817-0.11914 0.45335-0.17871 0.70355-0.17871 0.40631 0 0.72455 0.14241 0.95373 0.42732 0.22918 0.28482 0.34427 0.68629 0.34427 1.2042v2.5174c0 0.2695 0.044 0.4505 0.1321 0.54398 0.0891 0.09348 0.26921 0.15016 0.53941 0.17105v0.17105h-2.2828v-0.17105c0.28121-0.02089 0.46635-0.09348 0.55542-0.21779 0.0881-0.12431 0.13311-0.35702 0.13311-0.69912v-2.2844c0-0.71483-0.26621-1.0721-0.79762-1.0721-0.18814 0-0.35727 0.04137-0.50839 0.12431-0.15112 0.08284-0.36228 0.24862-0.63349 0.49724v3.092c0 0.19691 0.052 0.33414 0.15612 0.41171 0.10508 0.07757 0.29723 0.12729 0.57945 0.14818v0.17105h-2.3458v-0.17105c0.28122-0.02089 0.46636-0.08353 0.55543-0.18696 0.0881-0.10343 0.1321-0.31624 0.1321-0.63646v-2.7198c0-0.2693-0.028-0.45318-0.0861-0.55164-0.057-0.09836-0.16412-0.14758-0.32024-0.14758-0.13511 0-0.23418 0.01551-0.29723 0.04664m9.038 4.4752-0.046-0.03083v-0.71503c-0.35528 0.49724-0.82364 0.74586-1.4081 0.74586-0.61447 0-1.1068-0.21779-1.4771-0.65238-0.37028-0.43558-0.55542-1.0054-0.55542-1.7095 0-0.76674 0.22417-1.4219 0.67251-1.9658 0.44835-0.54388 0.98476-0.81577 1.6102-0.81577 0.39631 0 0.78261 0.16578 1.1579 0.49724v-1.7248c0-0.22783-0.034-0.3781-0.10208-0.4506-0.0681-0.0725-0.20016-0.1088-0.39831-0.1088h-0.25019v-0.17085c0.66651-0.17612 1.2089-0.33673 1.6262-0.48172l0.046 0.03102v6.1845c0 0.24862 0.032 0.4147 0.0941 0.49724 0.063 0.08254 0.19315 0.12431 0.3913 0.12431 0.042 0 0.1251-5e-3 0.25019-0.01591v0.17105s-1.6112 0.59072-1.6112 0.59072m-1.0318-0.59072c0.28121 0 0.51639-0.07757 0.70354-0.23271 0.18814-0.15514 0.28222-0.29536 0.28222-0.41967v-2.4863c0-0.29009-0.11509-0.54388-0.34427-0.76137-0.22918-0.21759-0.49038-0.32639-0.7816-0.32639-0.41732 0-0.75058 0.18388-1.0008 0.55164-0.2502 0.36776-0.37529 0.86241-0.37529 1.484 0 0.66331 0.14011 1.1944 0.42132 1.5931 0.28222 0.39878 0.6465 0.59768 1.0948 0.59768" stroke-width=".99762"/>
	<path class="Lyrics" d="m249.6 33.319v-0.17095c0.45935-0.13465 0.98576-0.32112 1.5792-0.55939l0.063 0.03113v0.83904c0.47937-0.58008 1.0108-0.87016 1.5952-0.87016 0.53141 0 0.96875 0.22018 1.313 0.66043 0.34426 0.44025 0.51639 1.0022 0.51639 1.6855 0 0.78762-0.22117 1.4509-0.66451 1.9889-0.44334 0.539-0.98776 0.80851-1.6343 0.80851-0.24018 0-0.43833-0.03083-0.59445-0.09348-0.15612-0.06166-0.33326-0.18099-0.53141-0.35702v1.7095c0 0.3411 0.06 0.55889 0.18013 0.65237 0.1191 0.09348 0.3823 0.14519 0.78961 0.15514v0.20188h-2.659v-0.18597c0.32325-0.03182 0.53241-0.09348 0.62549-0.18696 0.0941-0.09348 0.14111-0.28442 0.14111-0.57481v-5.1122c0-0.25896-0.029-0.42732-0.0861-0.50499-0.057-0.07777-0.18014-0.11655-0.36728-0.11655h-0.26621m1.6423 0.65257v2.7034c0 0.16608 0.12809 0.32917 0.38329 0.49028 0.2552 0.16011 0.5134 0.24066 0.7736 0.24066 0.3963 0 0.71655-0.18895 0.96174-0.56784 0.24519-0.3779 0.36728-0.87215 0.36728-1.4838 0-0.63149-0.12209-1.1419-0.36728-1.5303-0.24519-0.38844-0.57545-0.58266-0.99277-0.58266-0.25019 0-0.50038 0.08284-0.75057 0.24862-0.2502 0.16568-0.37529 0.32629-0.37529 0.48162m4.3784-0.65257c-0.16713 0-0.32325 0.01034-0.46936 0.03102v-0.15534c0.51139-0.14509 1.0788-0.34707 1.7043-0.60603l0.047 0.03113v3.8851c0 0.39282 0.047 0.64442 0.14111 0.75282 0.0941 0.10939 0.31824 0.17403 0.67251 0.19492v0.17105h-2.612v-0.17105c0.3863-0.02089 0.62849-0.08553 0.72756-0.19492 0.0991-0.1084 0.14812-0.36 0.14812-0.75282v-2.5333c0-0.23828-0.028-0.40654-0.0861-0.50499-0.057-0.09836-0.14811-0.14758-0.27321-0.14758m0.71955-3.1699c0.16613 0 0.30424 0.0544 0.41432 0.1631 0.10909 0.1088 0.16413 0.24086 0.16413 0.3963 0 0.15534-0.055 0.2874-0.16413 0.3962-0.11008 0.1088-0.24819 0.16319-0.41432 0.16319-0.15712 0-0.28722-0.0544-0.3913-0.16319-0.10408-0.1088-0.15612-0.24086-0.15612-0.3962 0-0.15544 0.055-0.2875 0.16413-0.3963 0.10908-0.1087 0.23718-0.1631 0.38329-0.1631m2.7051 4.4444c0.021 0.45547 0.0861 0.84431 0.19515 1.1655 0.11008 0.32022 0.25319 0.56387 0.43033 0.72994 0.17714 0.16608 0.35427 0.28243 0.53141 0.34906 0.17713 0.06762 0.36528 0.10144 0.56343 0.10144 0.35427 0 0.66151-0.08851 0.92171-0.26453 0.2612-0.17602 0.5214-0.46541 0.7826-0.87016l0.18715 0.07856c-0.22918 0.60066-0.54742 1.0591-0.95374 1.3744-0.40631 0.31624-0.87067 0.47436-1.3921 0.47436-0.62548 0-1.1229-0.22276-1.4932-0.66829-0.36928-0.44552-0.55443-1.0412-0.55443-1.7871 0-0.80751 0.21317-1.4579 0.6405-1.95 0.42733-0.49207 0.97975-0.7381 1.6573-0.7381 0.55343 0 0.98276 0.16578 1.291 0.49724 0.30724 0.33146 0.50239 0.83387 0.58545 1.5076h-3.3926m0.031-0.32669h2.2357c-0.072-0.47655-0.18414-0.80542-0.33526-0.98672-0.15111-0.18129-0.3993-0.27189-0.74357-0.27189-0.6565 0-1.0418 0.41957-1.1569 1.2586m7.0995-0.60603c-0.11509 0-0.2532-0.06991-0.41432-0.20974-0.16212-0.13982-0.26821-0.20974-0.32125-0.20974-0.14511 0-0.30924 0.1087-0.49238 0.32629-0.18214 0.21749-0.27321 0.4143-0.27321 0.59042v2.4712c0 0.32022 0.062 0.53602 0.18715 0.64442 0.12509 0.1084 0.37529 0.16807 0.75058 0.179v0.17105h-2.642v-0.17105c0.35427-0.06265 0.57344-0.13525 0.65651-0.21779 0.0831-0.08254 0.12509-0.26453 0.12509-0.54398v-2.7503c0-0.23828-0.029-0.40922-0.0861-0.51275-0.0571-0.10362-0.15412-0.15544-0.28923-0.15544-0.11509 0-0.24519 0.01551-0.3913 0.04664v-0.17095c0.59446-0.17612 1.1419-0.36259 1.6423-0.55939l0.047 0.01551v0.97896c0.27121-0.37293 0.50239-0.63189 0.69554-0.77688 0.19315-0.14509 0.40431-0.21759 0.63349-0.21759 0.18714 0 0.33325 0.05181 0.43733 0.15544 0.10508 0.10352 0.15712 0.24335 0.15712 0.41947 0 0.15544-0.037 0.27716-0.11008 0.36517-0.0731 0.08811-0.17714 0.13207-0.31224 0.13207m0.75058 1.6318c0-0.80851 0.23918-1.4609 0.71955-1.9581 0.47937-0.49724 1.0418-0.74586 1.6883-0.74586 0.45836 0 0.85466 0.11138 1.1889 0.33404 0.33326 0.22276 0.50038 0.48948 0.50038 0.80025 0 0.12431-0.05 0.23052-0.14911 0.31853-0.0991 0.08811-0.22618 0.13216-0.3833 0.13216-0.25019 0-0.42232-0.16578-0.51539-0.49724l-0.0631-0.2331c-0.062-0.20725-0.13511-0.34707-0.21917-0.41957-0.0831-0.0725-0.22317-0.1088-0.42133-0.1088-0.44834 0-0.81062 0.17612-1.0868 0.52836-0.27622 0.35214-0.41432 0.80801-0.41432 1.367 0 0.62154 0.15812 1.1317 0.47637 1.5305 0.31824 0.39878 0.72756 0.59867 1.2279 0.59867 0.31224 0 0.58345-0.07558 0.81263-0.22575 0.22917-0.15016 0.47436-0.41668 0.73556-0.79956l0.15612 0.09348c-0.0731 0.1442-0.1381 0.26652-0.19515 0.36497-0.058 0.09846-0.15712 0.24066-0.29723 0.42663-0.1411 0.18696-0.28221 0.34011-0.42232 0.45845-0.14111 0.11934-0.32325 0.22773-0.54742 0.32619-0.22417 0.09846-0.46136 0.14818-0.71155 0.14818-0.60447 0-1.1028-0.22774-1.4932-0.6842-0.3913-0.45547-0.58645-1.0402-0.58645-1.7552m5.6604-0.69912c0.021 0.45547 0.0861 0.84431 0.19515 1.1655 0.11008 0.32022 0.25319 0.56387 0.43033 0.72994 0.17714 0.16608 0.35427 0.28243 0.53141 0.34906 0.17714 0.06762 0.36528 0.10144 0.56343 0.10144 0.35428 0 0.66151-0.08851 0.92271-0.26453 0.2602-0.17602 0.52141-0.46541 0.78161-0.87016 0 0 0.18714 0.07856 0.18714 0.07856-0.22918 0.60066-0.54642 1.0591-0.95373 1.3744-0.40632 0.31624-0.86967 0.47436-1.3911 0.47436-0.62548 0-1.1239-0.22276-1.4932-0.66829-0.37028-0.44552-0.55542-1.0412-0.55542-1.7871 0-0.80751 0.21316-1.4579 0.64049-1.95 0.42833-0.49207 0.98075-0.7381 1.6583-0.7381 0.55242 0 0.98275 0.16578 1.29 0.49724s0.50239 0.83387 0.58645 1.5076h-3.3936m0.031-0.32669h2.2367c-0.073-0.47655-0.18514-0.80542-0.33625-0.98672-0.15112-0.18129-0.39931-0.27189-0.74258-0.27189-0.6575 0-1.0428 0.41957-1.1579 1.2586m7.5528 3.4652-0.047-0.03083v-0.71503c-0.35427 0.49724-0.82363 0.74586-1.4071 0.74586-0.61447 0-1.1078-0.21779-1.4771-0.65238-0.37028-0.43558-0.55543-1.0054-0.55543-1.7095 0-0.76674 0.22418-1.4219 0.67252-1.9658 0.44835-0.54388 0.98476-0.81577 1.6102-0.81577 0.39631 0 0.7816 0.16578 1.1569 0.49724v-1.7248c0-0.22783-0.033-0.3781-0.10107-0.4506-0.0681-0.0725-0.20116-0.1088-0.39931-0.1088h-0.25019v-0.17085c0.66751-0.17612 1.2099-0.33673 1.6262-0.48172l0.047 0.03102v6.1845c0 0.24862 0.031 0.4147 0.0941 0.49724 0.062 0.08254 0.19315 0.12431 0.3913 0.12431 0.041 0 0.12509-5e-3 0.25019-0.01591v0.17105s-1.6112 0.59072-1.6112 0.59072m-1.0318-0.59072c0.28121 0 0.51639-0.07757 0.70354-0.23271 0.18814-0.15514 0.28121-0.29536 0.28121-0.41967v-2.4863c0-0.29009-0.11408-0.54388-0.34326-0.76137-0.23018-0.21759-0.49038-0.32639-0.7826-0.32639-0.41632 0-0.75058 0.18388-1.0008 0.55164-0.2502 0.36776-0.37529 0.86241-0.37529 1.484 0 0.66332 0.14111 1.1944 0.42232 1.5931 0.28122 0.39878 0.6465 0.59768 1.0948 0.59768" stroke-width=".99762"/>
	<path class="Lyrics" d="m208.13 33.862v2.642c0 0.38287 0.044 0.62851 0.13311 0.7379 0.0881 0.1084 0.29422 0.17801 0.61747 0.20983v0.17105h-2.3768v-0.17105c0.31324-0.04176 0.50839-0.11436 0.58645-0.21779 0.0781-0.10342 0.11709-0.34707 0.11709-0.72994v-5.1438c0-0.23828-0.031-0.39361-0.0941-0.46611-0.062-0.0725-0.19815-0.1088-0.40631-0.1088-0.052 0-0.11409 0.0052-0.18715 0.01551v-0.17085c0.52041-0.13475 1.0418-0.29526 1.5632-0.48172l0.047 0.03102v3.3253c0.2502-0.32112 0.50339-0.55422 0.75859-0.69921 0.2552-0.14509 0.54442-0.21759 0.86767-0.21759 0.89669 0 1.345 0.58008 1.345 1.7403v2.1759c0 0.38287 0.036 0.62354 0.10909 0.72199 0.073 0.09846 0.2612 0.17403 0.56343 0.22574v0.17105h-2.3458v-0.17105c0.32325-0.02089 0.52941-0.09149 0.61748-0.20983 0.0891-0.11934 0.1331-0.36497 0.1331-0.7379v-2.16c0-0.77728-0.27621-1.1657-0.82864-1.1657-0.20916 0-0.40631 0.0543-0.59445 0.16309-0.18715 0.1088-0.39631 0.28233-0.62549 0.52061m4.4254-0.54388c-0.16712 0-0.32325 0.01034-0.46936 0.03102v-0.15534c0.5114-0.14509 1.0788-0.34707 1.7043-0.60603l0.047 0.03112v3.8851c0 0.39282 0.047 0.64442 0.14111 0.75282 0.0941 0.10939 0.31724 0.17403 0.67252 0.19492v0.17105h-2.612v-0.17105c0.38629-0.02089 0.62848-0.08553 0.72756-0.19492 0.0991-0.1084 0.14811-0.36 0.14811-0.75282v-2.5333c0-0.23828-0.028-0.40654-0.0861-0.505-0.057-0.09836-0.14811-0.14758-0.27321-0.14758m0.71956-3.1699c0.16613 0 0.30423 0.0544 0.41432 0.16309 0.10908 0.1088 0.16412 0.24086 0.16412 0.3963 0 0.15534-0.055 0.2874-0.16412 0.3962-0.11009 0.1088-0.24819 0.16319-0.41432 0.16319-0.15712 0-0.28722-0.0544-0.3913-0.16319-0.10408-0.1088-0.15612-0.24086-0.15612-0.3962 0-0.15544 0.054-0.2875 0.16412-0.3963 0.10909-0.1087 0.23719-0.16309 0.3833-0.16309m1.7824 3.1388v-0.18646c0.53141-0.15534 1.0478-0.32629 1.5482-0.51275l0.0781 0.03112v0.83904c0.44835-0.35224 0.78461-0.58525 1.0088-0.69922 0.22417-0.11397 0.45535-0.17095 0.69554-0.17095 0.57344 0 0.95874 0.31594 1.1569 0.94783 0.57344-0.63189 1.1729-0.94783 1.7984-0.94783 0.85466 0 1.282 0.65267 1.282 1.9581v2.2525c0 0.40475 0.15712 0.61657 0.46936 0.63746l0.28122 0.01591v0.17105h-2.4079v-0.17105c0.32325-0.03182 0.52641-0.09149 0.61047-0.179 0.0831-0.08851 0.1251-0.2874 0.1251-0.59867v-2.2992c0-0.44552-0.0601-0.7563-0.18014-0.93242-0.12009-0.17612-0.33626-0.26413-0.6495-0.26413-0.48938 0-0.89068 0.22266-1.2039 0.66809v2.7352c0 0.3411 0.055 0.57182 0.16413 0.69116 0.11009 0.11934 0.32125 0.179 0.63349 0.179v0.17105h-2.4709v-0.17105c0.31324-0.02089 0.51639-0.07757 0.61047-0.17105 0.0941-0.09348 0.1401-0.29039 0.1401-0.59072v-2.3619c0-0.76654-0.23918-1.1498-0.71855-1.1498-0.20916 0-0.44034 0.05171-0.69654 0.15534-0.25519 0.10362-0.46135 0.2693-0.61747 0.49724v3.061c0 0.20685 0.052 0.35006 0.15612 0.42762 0.10508 0.07757 0.30223 0.12132 0.59446 0.13226v0.17105h-2.4389v-0.17105c0.31224 0 0.5184-0.05171 0.61747-0.15613 0.0991-0.10342 0.14812-0.3053 0.14812-0.60563v-2.7503c0-0.25896-0.026-0.44025-0.0781-0.54388-0.052-0.10362-0.15112-0.15534-0.29723-0.15534-0.11409 0-0.23418 0.01551-0.35928 0.04655m9.9917 4.3507s-0.031 0.01094-0.0931 0.03082c-0.0631 0.01094-0.1311 0.01591-0.20416 0.01591-0.19815 0-0.35628-0.04873-0.47637-0.14718-0.12009-0.09846-0.18014-0.23569-0.18014-0.41171 0-0.17702 0.063-0.3242 0.18815-0.44354 0.12509-0.11934 0.28121-0.17801 0.46836-0.17801 0.25019 0 0.45935 0.09248 0.62548 0.27945 0.16713 0.18597 0.25019 0.41967 0.25019 0.69912 0 0.33116-0.11208 0.65039-0.33626 0.95569-0.22317 0.3053-0.5234 0.54597-0.89869 0.72199l-0.0941-0.20188c0.60447-0.4137 0.9077-0.80254 0.9077-1.1655 0-0.10342-0.053-0.15514-0.15712-0.15514" stroke-width=".99762"/>
	<path class="Lyrics" d="m171.88 33.256v-0.18646c0.54142-0.15544 1.0468-0.31594 1.5162-0.48172l0.0781 0.01551v0.85465c0.37529-0.3418 0.67252-0.57232 0.89169-0.69146s0.45335-0.17871 0.70354-0.17871c0.40631 0 0.72456 0.14241 0.95373 0.42732 0.22918 0.28482 0.34427 0.68629 0.34427 1.2042v2.5174c0 0.2695 0.044 0.4505 0.1331 0.54398 0.0881 0.09348 0.26821 0.15016 0.53942 0.17105v0.17105h-2.2828v-0.17105c0.28122-0.02089 0.46636-0.09348 0.55443-0.21779 0.0891-0.12431 0.1331-0.35702 0.1331-0.69912v-2.2844c0-0.71483-0.26621-1.0721-0.79762-1.0721-0.18714 0-0.35727 0.04137-0.50839 0.12431-0.15111 0.08284-0.36228 0.24862-0.63248 0.49724v3.092c0 0.1969 0.052 0.33414 0.15612 0.41171 0.10408 0.07757 0.29722 0.12729 0.57844 0.14818v0.17105h-2.3458v-0.17105c0.28122-0.02089 0.46636-0.08354 0.55543-0.18696 0.0881-0.10343 0.1331-0.31624 0.1331-0.63646v-2.7198c0-0.2693-0.029-0.45318-0.0861-0.55164-0.0581-0.09836-0.16413-0.14758-0.32125-0.14758-0.1351 0-0.23418 0.01551-0.29623 0.04664m5.5503 3.2789c0-0.12431 0.013-0.24365 0.04-0.35801 0.026-0.11337 0.0751-0.21978 0.14811-0.31823 0.0731-0.09846 0.14311-0.18597 0.21117-0.26453 0.068-0.07757 0.16712-0.15713 0.29722-0.24066 0.13011-0.08254 0.23919-0.15216 0.32826-0.20984 0.0881-0.05668 0.22417-0.12431 0.40631-0.20188 0.18214-0.07757 0.32025-0.13425 0.41432-0.17105 0.0941-0.0358 0.24219-0.09547 0.44634-0.17801 0.20316-0.08354 0.35628-0.14022 0.46036-0.17105v-0.66839c0-0.60086-0.28122-0.90129-0.84365-0.90129-0.21917 0-0.40732 0.05181-0.56344 0.15544-0.15612 0.10353-0.23418 0.2331-0.23418 0.38844 0 0.05181 0.01 0.12948 0.031 0.2331 0.021 0.10352 0.031 0.17095 0.031 0.20198 0 0.12431-0.049 0.23052-0.14811 0.31853-0.0991 0.08811-0.21617 0.13207-0.35227 0.13207-0.1251 0-0.23418-0.04655-0.32826-0.13982-0.0941-0.09318-0.1401-0.20198-0.1401-0.32629 0-0.3419 0.17713-0.63189 0.5314-0.87016 0.35428-0.23828 0.79161-0.35741 1.313-0.35741 0.60446 0 1.0218 0.14241 1.251 0.42732 0.22918 0.28482 0.34427 0.72258 0.34427 1.313v2.1292c0 0.23768 0.024 0.40077 0.0701 0.48928 0.047 0.08752 0.1331 0.13226 0.2582 0.13226 0.15612 0 0.31824-0.06762 0.48537-0.20188v0.29436c-0.19815 0.21779-0.36828 0.36597-0.50839 0.44354-0.14111 0.07757-0.30523 0.11635-0.49238 0.11635-0.21917 0-0.38329-0.06464-0.49338-0.19392-0.10908-0.13028-0.17914-0.34011-0.21116-0.6295-0.62548 0.54895-1.1569 0.82342-1.5942 0.82342-0.34426 0-0.62348-0.11138-0.83664-0.33414-0.21417-0.22276-0.32125-0.51016-0.32125-0.86221m2.7521-0.27945v-1.5703c-0.66652 0.23867-1.1309 0.46939-1.3911 0.69215-0.2612 0.22276-0.3913 0.49426-0.3913 0.81547 0 0.30033 0.073 0.52309 0.21916 0.66829 0.14612 0.14519 0.30224 0.21779 0.46937 0.21779 0.25019 0 0.51539-0.08353 0.79761-0.24862 0.1251-0.0726 0.20516-0.14519 0.24219-0.21779 0.036-0.0726 0.054-0.19193 0.054-0.35702m2.4399-2.9373c-0.16713 0-0.32325 0.01034-0.46936 0.03102v-0.15534c0.51139-0.14509 1.0788-0.34707 1.7043-0.60603l0.047 0.03112v3.8851c0 0.39282 0.047 0.64442 0.1411 0.75282 0.0941 0.10939 0.31825 0.17403 0.67252 0.19492v0.17105h-2.612v-0.17105c0.3863-0.02089 0.62848-0.08553 0.72756-0.19492 0.0991-0.1084 0.14811-0.36 0.14811-0.75282v-2.5333c0-0.23828-0.028-0.40654-0.0861-0.50499-0.0571-0.09836-0.14812-0.14758-0.27321-0.14758m0.71955-3.1699c0.16613 0 0.30424 0.05439 0.41432 0.16309 0.10909 0.1088 0.16413 0.24086 0.16413 0.3963 0 0.15534-0.055 0.2874-0.16413 0.3962-0.11008 0.1088-0.24819 0.16319-0.41432 0.16319-0.15712 0-0.28722-0.05439-0.3913-0.16319-0.10408-0.1088-0.15612-0.24086-0.15612-0.3962 0-0.15544 0.055-0.2875 0.16413-0.3963 0.10908-0.1087 0.23718-0.16309 0.38329-0.16309m1.7514 0.65257v-0.17085c0.72956-0.17612 1.313-0.33673 1.7514-0.48172l0.047 0.03102v6.5266c0 0.30033 0.049 0.49426 0.14811 0.58276 0.0991 0.08752 0.32625 0.14221 0.68052 0.1631v0.17105h-2.612v-0.17105c0.35428-0.02089 0.58645-0.08354 0.69654-0.18696 0.10908-0.10343 0.16413-0.30033 0.16413-0.59072v-5.2206c0-0.25896-0.034-0.43508-0.10208-0.52836-0.0681-0.09318-0.19015-0.13982-0.36729-0.13982-0.14611 0-0.28121 0.0052-0.40631 0.01551m3.7839 3.7918c0.021 0.45547 0.0861 0.84431 0.19515 1.1655 0.11008 0.32022 0.25319 0.56387 0.43033 0.72994 0.17713 0.16608 0.35427 0.28243 0.53141 0.34906 0.17713 0.06762 0.36528 0.10144 0.56343 0.10144 0.35427 0 0.66151-0.08851 0.92271-0.26453 0.2602-0.17602 0.5204-0.46541 0.7816-0.87016l0.18715 0.07856c-0.22918 0.60066-0.54742 1.0591-0.95374 1.3744-0.40631 0.31624-0.87067 0.47436-1.3911 0.47436-0.62548 0-1.1239-0.22276-1.4942-0.66829-0.36928-0.44552-0.55443-1.0412-0.55443-1.7871 0-0.80751 0.21317-1.4579 0.6405-1.95 0.42733-0.49206 0.97975-0.7381 1.6583-0.7381 0.55243 0 0.98176 0.16578 1.29 0.49724 0.30723 0.33146 0.50239 0.83387 0.58645 1.5076h-3.3936m0.031-0.32668h2.2367c-0.073-0.47655-0.18514-0.80542-0.33626-0.98672-0.15111-0.18129-0.3993-0.27189-0.74357-0.27189-0.6565 0-1.0418 0.41957-1.1569 1.2586m7.5528 3.4652-0.047-0.03083v-0.71503c-0.35427 0.49724-0.82363 0.74586-1.4071 0.74586-0.61548 0-1.1079-0.21779-1.4781-0.65238-0.36929-0.43558-0.55443-1.0054-0.55443-1.7095 0-0.76674 0.22417-1.4219 0.67252-1.9658 0.44734-0.54388 0.98476-0.81577 1.6102-0.81577 0.39631 0 0.7816 0.16578 1.1569 0.49724v-1.7248c0-0.22783-0.034-0.3781-0.10108-0.4506-0.068-0.0725-0.20115-0.1088-0.3993-0.1088h-0.2502v-0.17085c0.66752-0.17612 1.2099-0.33673 1.6263-0.48172l0.047 0.03102v6.1845c0 0.24862 0.031 0.4147 0.0941 0.49724 0.062 0.08254 0.19315 0.12431 0.39031 0.12431 0.042 0 0.12509-5e-3 0.25019-0.01591v0.17105s-1.6102 0.59072-1.6102 0.59072m-1.0318-0.59072c0.28122 0 0.5154-0.07757 0.70354-0.23271 0.18715-0.15514 0.28122-0.29536 0.28122-0.41967v-2.4863c0-0.29009-0.11409-0.54388-0.34426-0.76137-0.22918-0.21759-0.48938-0.32639-0.78161-0.32639-0.41632 0-0.75057 0.18388-1.0008 0.55164-0.25019 0.36776-0.37529 0.86241-0.37529 1.484 0 0.66331 0.14111 1.1944 0.42233 1.5931s0.6465 0.59768 1.0948 0.59768" stroke-width=".99762"/>
	<path class="Lyrics" d="m155.15 36.535c0-0.12431 0.013-0.24365 0.039-0.35801 0.026-0.11337 0.0751-0.21978 0.14812-0.31823 0.073-0.09846 0.14411-0.18597 0.21116-0.26453 0.068-0.07757 0.16713-0.15713 0.29723-0.24066 0.1301-0.08254 0.24018-0.15215 0.32825-0.20983 0.0891-0.05668 0.22417-0.12431 0.40732-0.20188 0.18214-0.07757 0.32024-0.13425 0.41431-0.17105 0.0931-0.0358 0.24219-0.09547 0.44535-0.17801 0.20315-0.08353 0.35727-0.14022 0.46135-0.17105v-0.66839c0-0.60086-0.28121-0.90129-0.84465-0.90129-0.21917 0-0.40631 0.05181-0.56243 0.15544-0.15712 0.10352-0.23518 0.2331-0.23518 0.38844 0 0.05181 0.011 0.12948 0.031 0.2331 0.021 0.10352 0.032 0.17095 0.032 0.20198 0 0.12431-0.05 0.23052-0.14912 0.31853-0.0991 0.08811-0.21616 0.13207-0.35127 0.13207-0.12509 0-0.23518-0.04655-0.32825-0.13982-0.0941-0.09318-0.14111-0.20198-0.14111-0.32629 0-0.3419 0.17714-0.63189 0.53141-0.87016 0.35427-0.23828 0.79261-0.35741 1.314-0.35741 0.60447 0 1.0218 0.14241 1.251 0.42732 0.22917 0.28482 0.34326 0.72258 0.34326 1.313v2.1292c0 0.23768 0.024 0.40077 0.071 0.48928 0.047 0.08752 0.13311 0.13226 0.2582 0.13226 0.15612 0 0.31725-0.06762 0.48438-0.20188v0.29436c-0.19816 0.21779-0.36729 0.36597-0.5084 0.44354-0.1401 0.07757-0.30523 0.11635-0.49237 0.11635-0.21917 0-0.3833-0.06464-0.49238-0.19392-0.11009-0.13028-0.18014-0.34011-0.21117-0.6295-0.62548 0.54895-1.1569 0.82342-1.5952 0.82342-0.34426 0-0.62247-0.11138-0.83664-0.33414-0.21316-0.22276-0.32025-0.51016-0.32025-0.86221m2.7521-0.27945v-1.5703c-0.66751 0.23867-1.1309 0.46939-1.3921 0.69215-0.2602 0.22276-0.3903 0.49425-0.3903 0.81547 0 0.30033 0.0721 0.52309 0.21817 0.66829 0.14611 0.14519 0.30223 0.21779 0.46936 0.21779 0.25019 0 0.5164-0.08353 0.79761-0.24862 0.1251-0.0726 0.20616-0.14519 0.24219-0.21779 0.037-0.0726 0.055-0.19193 0.055-0.35702m1.8604-2.9994v-0.18646c0.54241-0.15544 1.0478-0.31594 1.5172-0.48172l0.0781 0.01551v0.85465c0.37528-0.3418 0.67251-0.57232 0.89168-0.69146 0.21817-0.11914 0.45335-0.17871 0.70354-0.17871 0.40632 0 0.72456 0.14241 0.95374 0.42732 0.22918 0.28482 0.34426 0.68629 0.34426 1.2042v2.5174c0 0.2695 0.044 0.4505 0.13211 0.54398 0.0891 0.09348 0.2692 0.15016 0.53941 0.17105v0.17105h-2.2828v-0.17105c0.28122-0.02089 0.46636-0.09348 0.55543-0.21779 0.0881-0.12431 0.1331-0.35702 0.1331-0.69912v-2.2844c0-0.71483-0.2662-1.0721-0.79761-1.0721-0.18815 0-0.35728 0.04137-0.50839 0.12431-0.15112 0.08284-0.36228 0.24862-0.63349 0.49724v3.092c0 0.19691 0.052 0.33414 0.15612 0.41171 0.10508 0.07757 0.29723 0.12729 0.57945 0.14818v0.17105h-2.3458v-0.17105c0.28122-0.02089 0.46636-0.08353 0.55543-0.18696 0.0881-0.10343 0.1321-0.31624 0.1321-0.63646v-2.7198c0-0.2693-0.028-0.45318-0.0861-0.55164-0.057-0.09836-0.16412-0.14758-0.32024-0.14758-0.13511 0-0.23418 0.01551-0.29723 0.04664m9.038 4.4752-0.046-0.03083v-0.71503c-0.35527 0.49724-0.82363 0.74586-1.4081 0.74586-0.61447 0-1.1068-0.21779-1.4771-0.65238-0.37028-0.43558-0.55543-1.0054-0.55543-1.7095 0-0.76674 0.22418-1.4219 0.67252-1.9658 0.44835-0.54388 0.98476-0.81577 1.6102-0.81577 0.39631 0 0.7826 0.16578 1.1579 0.49724v-1.7248c0-0.22783-0.034-0.3781-0.10208-0.4506-0.068-0.0725-0.20115-0.1088-0.3983-0.1088h-0.2502v-0.17085c0.66652-0.17612 1.2089-0.33673 1.6263-0.48172l0.046 0.03102v6.1845c0 0.24862 0.032 0.4147 0.0941 0.49724 0.063 0.08254 0.19314 0.12431 0.3913 0.12431 0.041 0 0.12509-5e-3 0.25019-0.01591v0.17105s-1.6112 0.59072-1.6112 0.59072m-1.0318-0.59072c0.28122 0 0.5164-0.07757 0.70355-0.23271 0.18814-0.15514 0.28221-0.29536 0.28221-0.41967v-2.4863c0-0.29009-0.11509-0.54388-0.34426-0.76137-0.22918-0.21759-0.49038-0.32639-0.7816-0.32639-0.41733 0-0.75058 0.18388-1.0008 0.55164-0.25019 0.36776-0.37528 0.86241-0.37528 1.484 0 0.66331 0.1401 1.1944 0.42132 1.5931 0.28222 0.39878 0.6465 0.59768 1.0948 0.59768" stroke-width=".99762"/>
	<path class="Lyrics" d="m121.32 33.319v-0.17095c0.45835-0.13465 0.98476-0.32112 1.5792-0.55939l0.063 0.03113v0.83904c0.47937-0.58008 1.0108-0.87016 1.5942-0.87016 0.53241 0 0.96975 0.22018 1.314 0.66043 0.34427 0.44025 0.5154 1.0022 0.5154 1.6855 0 0.78762-0.22117 1.4509-0.66451 1.9889-0.44234 0.539-0.98776 0.80851-1.6333 0.80851-0.24019 0-0.43834-0.03083-0.59446-0.09348-0.15612-0.06166-0.33426-0.18099-0.53141-0.35702v1.7095c0 0.3411 0.0591 0.55889 0.17914 0.65237 0.12009 0.09348 0.3833 0.14519 0.78961 0.15514v0.20188h-2.658v-0.18597c0.32325-0.03182 0.53141-0.09348 0.62548-0.18696 0.0941-0.09348 0.14111-0.28442 0.14111-0.57481v-5.1122c0-0.25896-0.029-0.42732-0.0861-0.50499-0.058-0.07777-0.18013-0.11655-0.36728-0.11655h-0.2662m1.6423 0.65257v2.7034c0 0.16608 0.1271 0.32917 0.3823 0.49028 0.25619 0.16011 0.51339 0.24066 0.77459 0.24066 0.39631 0 0.71656-0.18895 0.96174-0.56784 0.24519-0.3779 0.36729-0.87215 0.36729-1.4838 0-0.63149-0.1221-1.1419-0.36729-1.5303-0.24518-0.38844-0.57644-0.58266-0.99276-0.58266-0.25019 0-0.50039 0.08284-0.75058 0.24862-0.25019 0.16568-0.37529 0.32629-0.37529 0.48162m4.3784-0.65257c-0.16712 0-0.32324 0.01034-0.46936 0.03102v-0.15534c0.5104-0.14509 1.0788-0.34707 1.7043-0.60603l0.047 0.03113v3.8851c0 0.39282 0.047 0.64442 0.14011 0.75282 0.0941 0.10939 0.31825 0.17403 0.67252 0.19492v0.17105h-2.611v-0.17105c0.38529-0.02089 0.62848-0.08553 0.72756-0.19492 0.0981-0.1084 0.14811-0.36 0.14811-0.75282v-2.5333c0-0.23828-0.029-0.40654-0.0861-0.50499-0.0571-0.09836-0.14812-0.14758-0.27322-0.14758m0.71856-3.1699c0.16713 0 0.30523 0.0544 0.41432 0.1631 0.11008 0.1088 0.16412 0.24086 0.16412 0.3963 0 0.15534-0.054 0.2874-0.16412 0.3962-0.10909 0.1088-0.24719 0.16319-0.41432 0.16319-0.15612 0-0.28622-0.0544-0.3903-0.16319-0.10408-0.1088-0.15712-0.24086-0.15712-0.3962 0-0.15544 0.055-0.2875 0.16512-0.3963 0.10909-0.1087 0.23619-0.1631 0.3823-0.1631m2.7051 4.4444c0.021 0.45547 0.0861 0.84431 0.19615 1.1655 0.10909 0.32022 0.2522 0.56387 0.42933 0.72994 0.17814 0.16608 0.35528 0.28243 0.53241 0.34906 0.17714 0.06762 0.36428 0.10144 0.56244 0.10144 0.35427 0 0.66251-0.08851 0.92271-0.26453 0.2602-0.17602 0.5214-0.46541 0.7816-0.87016l0.18814 0.07856c-0.22917 0.60066-0.54742 1.0591-0.95373 1.3744-0.40731 0.31624-0.87067 0.47436-1.3921 0.47436-0.62548 0-1.1229-0.22276-1.4932-0.66829-0.37029-0.44552-0.55543-1.0412-0.55543-1.7871 0-0.80751 0.21416-1.4579 0.64149-1.95 0.42733-0.49207 0.97976-0.7381 1.6573-0.7381 0.55243 0 0.98276 0.16578 1.29 0.49724 0.30724 0.33146 0.50339 0.83387 0.58646 1.5076h-3.3936m0.032-0.32669h2.2357c-0.0731-0.47655-0.18514-0.80542-0.33626-0.98672-0.15112-0.18129-0.39831-0.27189-0.74257-0.27189-0.65651 0-1.0428 0.41957-1.1569 1.2586m7.0985-0.60603c-0.11408 0-0.25219-0.06991-0.41431-0.20974-0.16113-0.13982-0.26821-0.20974-0.32025-0.20974-0.14611 0-0.31024 0.1087-0.49238 0.32629-0.18214 0.21749-0.27421 0.4143-0.27421 0.59042v2.4712c0 0.32022 0.0631 0.53602 0.18814 0.64442 0.1251 0.1084 0.37529 0.16807 0.75058 0.179v0.17105h-2.643v-0.17105c0.35427-0.06265 0.57344-0.13525 0.6575-0.21779 0.0831-0.08254 0.1251-0.26453 0.1251-0.54398v-2.7503c0-0.23828-0.029-0.40922-0.0861-0.51275-0.058-0.10362-0.15412-0.15544-0.28922-0.15544-0.11509 0-0.24519 0.01551-0.3913 0.04664v-0.17095c0.59446-0.17612 1.1419-0.36259 1.6423-0.55939l0.046 0.01551v0.97896c0.27121-0.37293 0.50339-0.63189 0.69653-0.77688 0.19215-0.14509 0.40332-0.21759 0.63349-0.21759 0.18715 0 0.33326 0.05181 0.43734 0.15544 0.10408 0.10352 0.15612 0.24335 0.15612 0.41947 0 0.15544-0.036 0.27716-0.10908 0.36517-0.0731 0.08811-0.17714 0.13207-0.31325 0.13207m0.75058 1.6318c0-0.80851 0.24019-1.4609 0.71956-1.9581 0.47937-0.49724 1.0428-0.74586 1.6893-0.74586 0.45835 0 0.85466 0.11138 1.1879 0.33404 0.33426 0.22276 0.50039 0.48948 0.50039 0.80025 0 0.12431-0.049 0.23052-0.14812 0.31853-0.0991 0.08811-0.22717 0.13216-0.38329 0.13216-0.25019 0-0.42233-0.16578-0.5164-0.49724l-0.062-0.2331c-0.063-0.20725-0.1361-0.34707-0.21916-0.41957-0.0831-0.0725-0.22418-0.1088-0.42233-0.1088-0.44835 0-0.81062 0.17612-1.0868 0.52836-0.27621 0.35214-0.41432 0.80801-0.41432 1.367 0 0.62154 0.15913 1.1317 0.47737 1.5305 0.31725 0.39878 0.72656 0.59867 1.227 0.59867 0.31324 0 0.58445-0.07558 0.81362-0.22575 0.22918-0.15016 0.47437-0.41668 0.73457-0.79956l0.15612 0.09348c-0.0721 0.1442-0.13811 0.26652-0.19515 0.36497-0.057 0.09846-0.15612 0.24066-0.29723 0.42663-0.14011 0.18696-0.28122 0.34011-0.42233 0.45845-0.1401 0.11934-0.32324 0.22773-0.54642 0.32619-0.22417 0.09846-0.46135 0.14818-0.71154 0.14818-0.60547 0-1.1028-0.22774-1.4942-0.6842-0.3903-0.45547-0.58645-1.0402-0.58645-1.7552m5.6614-0.69912c0.021 0.45547 0.0861 0.84431 0.19515 1.1655 0.10909 0.32022 0.2532 0.56387 0.43034 0.72994 0.17713 0.16608 0.35427 0.28243 0.5314 0.34906 0.17714 0.06762 0.36529 0.10144 0.56244 0.10144 0.35527 0 0.66251-0.08851 0.92271-0.26453 0.2612-0.17602 0.5214-0.46541 0.7826-0.87016l0.18715 0.07856c-0.22918 0.60066-0.54743 1.0591-0.95374 1.3744-0.40631 0.31624-0.87067 0.47436-1.3921 0.47436-0.62548 0-1.1229-0.22276-1.4932-0.66829-0.37029-0.44552-0.55543-1.0412-0.55543-1.7871 0-0.80751 0.21417-1.4579 0.6415-1.95 0.42732-0.49207 0.97975-0.7381 1.6573-0.7381 0.55243 0 0.98276 0.16578 1.29 0.49724 0.30823 0.33146 0.50338 0.83387 0.58645 1.5076h-3.3926m0.031-0.32669h2.2357c-0.0731-0.47655-0.18514-0.80542-0.33626-0.98672-0.15112-0.18129-0.39831-0.27189-0.74257-0.27189-0.65651 0-1.0418 0.41957-1.1569 1.2586m7.5528 3.4652-0.047-0.03083v-0.71503c-0.35427 0.49724-0.82364 0.74586-1.4071 0.74586-0.61548 0-1.1079-0.21779-1.4781-0.65238-0.37029-0.43558-0.55543-1.0054-0.55543-1.7095 0-0.76674 0.22417-1.4219 0.67252-1.9658 0.44834-0.54388 0.98576-0.81577 1.6112-0.81577 0.3963 0 0.7816 0.16578 1.1569 0.49724v-1.7248c0-0.22783-0.034-0.3781-0.10208-0.4506-0.067-0.0725-0.20015-0.1088-0.39831-0.1088h-0.25019v-0.17085c0.66752-0.17612 1.2089-0.33673 1.6262-0.48172l0.047 0.03102v6.1845c0 0.24862 0.031 0.4147 0.0941 0.49724 0.062 0.08254 0.19215 0.12431 0.3903 0.12431 0.042 0 0.1251-5e-3 0.2502-0.01591v0.17105l-1.6102 0.59072m-1.0318-0.59072c0.28122 0 0.5154-0.07757 0.70354-0.23271 0.18715-0.15514 0.28122-0.29536 0.28122-0.41967v-2.4863c0-0.29009-0.11509-0.54388-0.34427-0.76137-0.22917-0.21759-0.48937-0.32639-0.7816-0.32639-0.41732 0-0.75058 0.18388-1.0008 0.55164-0.25019 0.36776-0.37529 0.86241-0.37529 1.484 0 0.66332 0.14111 1.1944 0.42233 1.5931 0.28121 0.39878 0.6465 0.59768 1.0948 0.59768" stroke-width=".99762"/>
	<path class="Lyrics" d="m101.37 33.862v2.642c0 0.38287 0.045 0.62851 0.1331 0.7379 0.0891 0.1084 0.29523 0.17801 0.61747 0.20983v0.17105h-2.3768v-0.17105c0.31324-0.04176 0.50839-0.11436 0.58645-0.21779 0.0791-0.10342 0.1181-0.34707 0.1181-0.72994v-5.1438c0-0.23828-0.032-0.39361-0.0941-0.46611-0.0631-0.0725-0.19815-0.1088-0.40631-0.1088-0.05304 0-0.11509 0.0052-0.18814 0.01551v-0.17085c0.52141-0.13475 1.0428-0.29526 1.5642-0.48172l0.046 0.03102v3.3253c0.25019-0.32112 0.50338-0.55422 0.75858-0.69921 0.2552-0.14509 0.54542-0.21759 0.86767-0.21759 0.89669 0 1.345 0.58008 1.345 1.7403v2.1759c0 0.38287 0.037 0.62354 0.11009 0.72199 0.072 0.09846 0.2602 0.17403 0.56243 0.22574v0.17105h-2.3458v-0.17105c0.32325-0.02089 0.52941-0.09149 0.61848-0.20983 0.0881-0.11934 0.1321-0.36497 0.1321-0.7379v-2.16c0-0.77728-0.27621-1.1657-0.82864-1.1657-0.20816 0-0.40631 0.0543-0.59445 0.16309-0.18715 0.1088-0.39531 0.28233-0.62548 0.52061m4.0191 2.6728c0-0.12431 0.013-0.24364 0.039-0.35801 0.026-0.11337 0.0761-0.21978 0.14912-0.31823 0.0721-0.09846 0.14311-0.18597 0.21116-0.26453 0.067-0.07757 0.16613-0.15713 0.29623-0.24066 0.1311-0.08254 0.24018-0.15215 0.32925-0.20983 0.0881-0.05668 0.22317-0.12431 0.40631-0.20188 0.18214-0.07757 0.32025-0.13425 0.41432-0.17105 0.0941-0.0358 0.24219-0.09547 0.44535-0.17801 0.20315-0.08354 0.35727-0.14022 0.46135-0.17105v-0.66839c0-0.60086-0.28122-0.90129-0.84465-0.90129-0.21817 0-0.40631 0.05181-0.56243 0.15544-0.15612 0.10352-0.23518 0.2331-0.23518 0.38844 0 0.05181 0.011 0.12948 0.032 0.2331 0.021 0.10352 0.031 0.17095 0.031 0.20198 0 0.12431-0.05 0.23052-0.14811 0.31853-0.0991 0.08811-0.21717 0.13207-0.35227 0.13207-0.1251 0-0.23418-0.04655-0.32825-0.13982-0.0941-0.09318-0.14111-0.20198-0.14111-0.32629 0-0.3419 0.17713-0.63189 0.53141-0.87016 0.35527-0.23828 0.79261-0.35741 1.314-0.35741 0.60446 0 1.0218 0.14241 1.251 0.42733 0.22918 0.28482 0.34427 0.72258 0.34427 1.313v2.1292c0 0.23768 0.023 0.40077 0.07 0.48928 0.047 0.08752 0.1331 0.13226 0.2582 0.13226 0.15612 0 0.31825-0.06762 0.48437-0.20188v0.29436c-0.19815 0.21779-0.36728 0.36597-0.50839 0.44354-0.14011 0.07757-0.30423 0.11635-0.49238 0.11635-0.21917 0-0.38329-0.06464-0.49238-0.19392-0.10908-0.13028-0.18014-0.34011-0.21116-0.6295-0.62548 0.54895-1.1569 0.82342-1.5952 0.82342-0.34326 0-0.62248-0.11138-0.83664-0.33414-0.21317-0.22276-0.32025-0.51016-0.32025-0.86221m2.7521-0.27945v-1.5703c-0.66751 0.23867-1.1309 0.46939-1.3921 0.69215-0.2602 0.22276-0.3903 0.49425-0.3903 0.81547 0 0.30033 0.0731 0.52309 0.21917 0.66829 0.14511 0.14519 0.30223 0.21779 0.46836 0.21779 0.25019 0 0.5164-0.08354 0.79761-0.24862 0.1251-0.0726 0.20616-0.14519 0.24219-0.21779 0.037-0.0726 0.055-0.19193 0.055-0.35702m6.8493-3.5588v0.17095c-0.16713 0.01035-0.29223 0.06216-0.37529 0.15534-0.0841 0.09328-0.19815 0.32629-0.34427 0.69922l-1.4071 3.5119c-0.14611 0.36199-0.25019 0.54398-0.31324 0.54398-0.0731 0-0.16613-0.17105-0.28122-0.51315 0 0-1.313-3.1387-1.313-3.1387-0.24019-0.56973-0.41432-0.91939-0.5244-1.0489-0.10909-0.12948-0.26821-0.19939-0.47637-0.20973v-0.17095h2.1577v0.17095c-0.19815 0.01035-0.33426 0.03878-0.40631 0.08543-0.0731 0.04664-0.11009 0.11655-0.11009 0.20973 0 0.12431 0.031 0.25896 0.0941 0.40406l1.1259 2.813 1.0948-2.8441c0.041-0.10353 0.062-0.21232 0.062-0.32629 0-0.19681-0.17213-0.31077-0.51539-0.3418v-0.17095h1.5322m1.1098 1.8961c0.021 0.45547 0.0861 0.84431 0.19615 1.1655 0.10909 0.32022 0.2522 0.56387 0.42933 0.72994 0.17714 0.16608 0.35428 0.28243 0.53141 0.34906 0.17814 0.06762 0.36528 0.10144 0.56344 0.10144 0.35427 0 0.66151-0.08851 0.92271-0.26453 0.2602-0.17602 0.5214-0.46541 0.7816-0.87016l0.18814 0.07856c-0.23017 0.60066-0.54742 1.0591-0.95473 1.3744-0.40631 0.31624-0.86967 0.47436-1.3911 0.47436-0.62548 0-1.1239-0.22276-1.4932-0.66829-0.37029-0.44552-0.55543-1.0412-0.55543-1.7871 0-0.80751 0.21316-1.4579 0.64149-1.95 0.42733-0.49207 0.97976-0.7381 1.6573-0.7381 0.55243 0 0.98276 0.16578 1.29 0.49724 0.30724 0.33146 0.50239 0.83387 0.58646 1.5076h-3.3936m0.031-0.32668h2.2367c-0.0731-0.47655-0.18514-0.80542-0.33626-0.98672-0.15112-0.18129-0.39931-0.27189-0.74257-0.27189-0.65751 0-1.0428 0.41957-1.1579 1.2586" stroke-width=".99762"/>
	<path class="Lyrics" d="m74.959 33.862v2.642c0 0.38287 0.04403 0.62851 0.1331 0.7379 0.08807 0.1084 0.29423 0.17801 0.61748 0.20983v0.17105h-2.3768v-0.17105c0.31224-0.04176 0.50839-0.11436 0.58645-0.21779 0.07806-0.10342 0.11709-0.34707 0.11709-0.72994v-5.1438c0-0.23828-0.03102-0.39361-0.09407-0.46611-0.06205-0.0725-0.19815-0.1088-0.40631-0.1088-0.05204 0-0.11509 0.0052-0.18814 0.01551v-0.17085c0.5214-0.13475 1.0428-0.29526 1.5642-0.48172l0.04704 0.03102v3.3253c0.25019-0.32112 0.50239-0.55422 0.75858-0.69921 0.2552-0.14509 0.54442-0.21759 0.86767-0.21759 0.89669 0 1.345 0.58008 1.345 1.7403v2.1759c0 0.38287 0.03603 0.62354 0.10908 0.72199 0.07306 0.09846 0.2602 0.17403 0.56243 0.22574v0.17105h-2.3448v-0.17105c0.32325-0.02089 0.52841-0.09149 0.61748-0.20983 0.08807-0.11934 0.1331-0.36497 0.1331-0.7379v-2.16c0-0.77728-0.27621-1.1657-0.82864-1.1657-0.20916 0-0.40731 0.0543-0.59446 0.16309-0.18814 0.1088-0.39631 0.28233-0.62548 0.52061m4.0181 2.6728c0-0.12431 0.01301-0.24364 0.04003-0.35801 0.02602-0.11337 0.07506-0.21978 0.14811-0.31823 0.07306-0.09846 0.14311-0.18597 0.21116-0.26453 0.06805-0.07757 0.16713-0.15713 0.29723-0.24066 0.1301-0.08254 0.23918-0.15215 0.32825-0.20983 0.08807-0.05668 0.22417-0.12431 0.40631-0.20188 0.18214-0.07757 0.32025-0.13425 0.41432-0.17105 0.09407-0.0358 0.24219-0.09547 0.44634-0.17801 0.20316-0.08354 0.35628-0.14022 0.46036-0.17105v-0.66839c0-0.60086-0.28122-0.90129-0.84365-0.90129-0.21917 0-0.40731 0.05181-0.56343 0.15544-0.15612 0.10352-0.23418 0.2331-0.23418 0.38844 0 0.05181 0.01001 0.12948 0.03102 0.2331 0.02102 0.10352 0.03102 0.17095 0.03102 0.20198 0 0.12431-0.04904 0.23052-0.14811 0.31853-0.09908 0.08811-0.21617 0.13207-0.35227 0.13207-0.1251 0-0.23418-0.04655-0.32825-0.13982-0.09407-0.09318-0.14011-0.20198-0.14011-0.32629 0-0.3419 0.17714-0.63189 0.53141-0.87016 0.35427-0.23828 0.79161-0.35741 1.313-0.35741 0.60447 0 1.0218 0.14241 1.251 0.42733 0.22918 0.28482 0.34426 0.72258 0.34426 1.313v2.1292c0 0.23768 0.02402 0.40077 0.07005 0.48928 0.04704 0.08752 0.1331 0.13226 0.2582 0.13226 0.15612 0 0.31824-0.06762 0.48537-0.20188v0.29436c-0.19815 0.21779-0.36828 0.36597-0.50839 0.44354-0.14111 0.07757-0.30524 0.11635-0.49238 0.11635-0.21917 0-0.3833-0.06464-0.49338-0.19392-0.10908-0.13028-0.17914-0.34011-0.21116-0.6295-0.62548 0.54895-1.1569 0.82342-1.5942 0.82342-0.34426 0-0.62348-0.11138-0.83664-0.33414-0.21416-0.22276-0.32125-0.51016-0.32125-0.86221m2.7521-0.27945v-1.5703c-0.66651 0.23867-1.1309 0.46939-1.3911 0.69215-0.2612 0.22276-0.3913 0.49425-0.3913 0.81547 0 0.30033 0.07306 0.52309 0.21917 0.66829 0.14611 0.14519 0.30223 0.21779 0.46936 0.21779 0.25019 0 0.5154-0.08354 0.79762-0.24862 0.1251-0.0726 0.20516-0.14519 0.24219-0.21779 0.03603-0.0726 0.05404-0.19193 0.05404-0.35702m1.8614-2.9994v-0.18646c0.54142-0.15544 1.0478-0.31594 1.5162-0.48172l0.07906 0.01551v0.85465c0.37529-0.3418 0.67152-0.57232 0.89069-0.69146s0.45335-0.17871 0.70354-0.17871c0.40731 0 0.72456 0.14241 0.95373 0.42733 0.23018 0.28482 0.34427 0.68629 0.34427 1.2042v2.5174c0 0.2695 0.04403 0.4505 0.1331 0.54398 0.08907 0.09348 0.26821 0.15016 0.53942 0.17105v0.17105h-2.2828v-0.17105c0.28122-0.02089 0.46636-0.09348 0.55543-0.21779 0.08807-0.12431 0.1321-0.35702 0.1321-0.69912v-2.2844c0-0.71483-0.2652-1.0721-0.79762-1.0721-0.18714 0-0.35627 0.04137-0.50739 0.12431-0.15112 0.08284-0.36228 0.24862-0.63349 0.49724v3.092c0 0.19691 0.05204 0.33414 0.15612 0.41171 0.10408 0.07757 0.29723 0.12729 0.57844 0.14818v0.17105h-2.3458v-0.17105c0.28222-0.02089 0.46736-0.08353 0.55543-0.18696 0.08907-0.10342 0.1331-0.31624 0.1331-0.63646v-2.7198c0-0.2693-0.02902-0.45318-0.08607-0.55164-0.05704-0.09836-0.16413-0.14758-0.32025-0.14758-0.1361 0-0.23518 0.01551-0.29723 0.04664m9.038 4.4752-0.04704-0.03083v-0.71503c-0.35427 0.49724-0.82364 0.74586-1.4071 0.74586-0.61547 0-1.1079-0.21779-1.4781-0.65238-0.36928-0.43558-0.55443-1.0054-0.55443-1.7095 0-0.76674 0.22417-1.4219 0.67252-1.9658 0.44734-0.54388 0.98476-0.81577 1.6102-0.81577 0.39631 0 0.7816 0.16578 1.1569 0.49724v-1.7248c0-0.22783-0.03403-0.3781-0.10108-0.4506-0.06805-0.0725-0.20116-0.1088-0.39931-0.1088h-0.25019v-0.17085c0.66752-0.17612 1.2099-0.33673 1.6263-0.48172l0.04704 0.03102v6.1845c0 0.24862 0.03102 0.4147 0.09407 0.49724 0.06205 0.08254 0.19315 0.12431 0.3903 0.12431 0.04203 0 0.1251-5e-3 0.25019-0.01591v0.17105l-1.6102 0.59072m-1.0318-0.59072c0.28122 0 0.5154-0.07757 0.70354-0.23271 0.18714-0.15514 0.28122-0.29536 0.28122-0.41967v-2.4863c0-0.29009-0.11409-0.54388-0.34427-0.76137-0.22918-0.21759-0.48938-0.32639-0.7816-0.32639-0.41632 0-0.75058 0.18388-1.0008 0.55163-0.25019 0.36776-0.37529 0.86241-0.37529 1.484 0 0.66331 0.14111 1.1944 0.42233 1.5931 0.28122 0.39878 0.6465 0.59768 1.0948 0.59768m5.7074-4.3351s0.05704-0.0363 0.17213-0.1088h0.1251l0.04704 1.4917h-0.17213c-0.1251-0.48689-0.27922-0.83396-0.46136-1.0411-0.18214-0.20715-0.43033-0.31077-0.74257-0.31077-0.25019 0-0.45635 0.06991-0.61748 0.20974-0.16212 0.13992-0.24319 0.31863-0.24319 0.53612 0 0.31077 0.16212 0.55939 0.48537 0.74586l1.1879 0.69912c0.32325 0.1969 0.55743 0.39679 0.70354 0.59867 0.14611 0.20188 0.21917 0.43757 0.21917 0.70707 0 0.38287-0.15412 0.71204-0.46136 0.98652-0.30724 0.27447-0.67452 0.41171-1.1018 0.41171-0.17814 0-0.42032-0.03382-0.72756-0.10144-0.30724-0.06663-0.49738-0.10044-0.57044-0.10044-0.11509 0-0.19815 0.04674-0.25019 0.13923h-0.15712v-1.7085h0.18814c0.11509 0.50718 0.25019 0.87016 0.40631 1.087 0.24018 0.30033 0.56844 0.45149 0.98576 0.45149 0.28122 0 0.50239-0.0726 0.66451-0.21779 0.16112-0.14519 0.24219-0.33713 0.24219-0.57481 0-0.33215-0.18814-0.60663-0.56343-0.82342l-0.64049-0.35801c-0.46936-0.2695-0.80062-0.52309-0.99276-0.76077-0.19315-0.23867-0.29022-0.51325-0.29022-0.82402 0-0.39371 0.14111-0.71483 0.42232-0.96345 0.28222-0.24862 0.63649-0.37293 1.0638-0.37293 0.25019 0 0.47937 0.03372 0.68753 0.10104 0.20916 0.06732 0.33926 0.10104 0.3913 0.10104" stroke-width=".99762"/>
	<path class="Lyrics" d="m41.176 34.592c0.02082 0.45547 0.08597 0.84431 0.19545 1.1655 0.10938 0.32022 0.2528 0.56387 0.43003 0.72994 0.17714 0.16608 0.35437 0.28243 0.53161 0.34906 0.17724 0.06762 0.36488 0.10144 0.56293 0.10144 0.35447 0 0.66201-0.08851 0.92261-0.26453 0.2606-0.17602 0.5212-0.46541 0.7818-0.87016l0.18764 0.07856c-0.22928 0.60066-0.54722 1.0591-0.95384 1.3744-0.40651 0.31624-0.87047 0.47436-1.3917 0.47436-0.62548 0-1.1233-0.22276-1.4934-0.66829s-0.55513-1.0412-0.55513-1.7871c0-0.80751 0.21376-1.4579 0.64109-1.95 0.42743-0.49206 0.97996-0.7381 1.6576-0.7381 0.55252 0 0.98256 0.16578 1.29 0.49724 0.30754 0.33146 0.50309 0.83387 0.58645 1.5076h-3.3932m0.03122-0.32668h2.2361c-0.07296-0.47655-0.18504-0.80542-0.33626-0.98672-0.15112-0.18129-0.39871-0.27189-0.74267-0.27189-0.65681 0-1.0425 0.41957-1.1572 1.2586m7.5527 3.4652-0.04694-0.03083v-0.71503c-0.35447 0.49724-0.82353 0.74586-1.4073 0.74586-0.61507 0-1.1077-0.21779-1.4777-0.65238-0.37008-0.43558-0.55513-1.0054-0.55513-1.7095 0-0.76674 0.22417-1.4219 0.67242-1.9658 0.44825-0.54388 0.98516-0.81577 1.6106-0.81577 0.3961 0 0.7818 0.16578 1.1571 0.49724v-1.7248c0-0.22783-0.03383-0.3781-0.10168-0.4506-0.06775-0.0725-0.20066-0.1088-0.39871-0.1088h-0.25019v-0.17085c0.66721-0.17612 1.2092-0.33673 1.6263-0.48172l0.04694 0.03102v6.1845c0 0.24862 0.03122 0.4147 0.09377 0.49724 0.06255 0.08254 0.19285 0.12431 0.391 0.12431 0.04163 0 0.1251-5e-3 0.25019-0.01591v0.17105s-1.6106 0.59072-1.6106 0.59072m-1.0321-0.59072c0.28152 0 0.5161-0.07757 0.70374-0.23271 0.18764-0.15514 0.28142-0.29536 0.28142-0.41967v-2.4863c0-0.29009-0.11469-0.54388-0.34396-0.76137-0.22938-0.21759-0.48998-0.32639-0.7819-0.32639-0.41702 0-0.75058 0.18388-1.0008 0.55164s-0.37529 0.86241-0.37529 1.484c0 0.66331 0.14071 1.1944 0.42222 1.5931 0.28142 0.39878 0.6463 0.59768 1.0945 0.59768" stroke-width=".99762"/>
	<path class="Lyrics" d="m14.023 34.234c-0.19805-0.59052-0.35187-0.95828-0.46136-1.1033-0.10938-0.14509-0.28402-0.2331-0.5238-0.26413v-0.17095h2.2361v0.17095c-0.2606 0.03102-0.43263 0.0725-0.516 0.12431-0.08346 0.05171-0.1251 0.13982-0.1251 0.26413 0 0.09318 0.06255 0.31077 0.18764 0.65257l0.92251 2.4393 1.0008-2.4237c0.1251-0.31077 0.18764-0.54905 0.18764-0.71483 0-0.10362-0.03383-0.17871-0.10158-0.22535-0.06775-0.04655-0.19545-0.08543-0.3831-0.11645v-0.17095h1.3447v0.17095c-0.10428 0.03102-0.17984 0.08025-0.22677 0.14758-0.04684 0.06732-0.11719 0.21491-0.21106 0.44284l-1.5324 3.776c-0.14601 0.36199-0.24759 0.54398-0.30494 0.54398-0.05734 0-0.14341-0.15514-0.258-0.46641l-1.0008-2.5946-1.2354 2.6254c-0.1355 0.29039-0.22938 0.43558-0.28152 0.43558s-0.14591-0.1611-0.28142-0.48232c0 0-1.4855-3.7444-1.4855-3.7444-0.11469-0.27975-0.20846-0.46104-0.28142-0.54388-0.07306-0.08293-0.17203-0.12948-0.29713-0.13982v-0.17095h1.9702v0.17095c-0.18764 0.02069-0.31794 0.05688-0.3909 0.1087-0.07296 0.05181-0.10948 0.13465-0.10948 0.24862s0.02092 0.22276 0.06255 0.32639l1.0946 2.8593 1.0008-2.1756m4.5035-0.9168c-0.16683 0-0.32315 0.01034-0.46916 0.03102v-0.15534c0.51079-0.14509 1.079-0.34707 1.7045-0.60603l0.04684 0.03112v3.8851c0 0.39282 0.04694 0.64442 0.14081 0.75282 0.09377 0.10939 0.31794 0.17403 0.67232 0.19492v0.17105h-2.6113v-0.17105c0.3857-0.02089 0.62808-0.08553 0.72706-0.19492 0.09908-0.1084 0.14861-0.36 0.14861-0.75282v-2.5333c0-0.23828-0.02872-0.40654-0.08607-0.505-0.05734-0.09836-0.14851-0.14758-0.27361-0.14758m0.71925-3.1699c0.16683 0 0.30494 0.0544 0.41442 0.16309 0.10948 0.1088 0.16423 0.24086 0.16423 0.3963 0 0.15534-0.05474 0.2874-0.16423 0.3962-0.10948 0.1088-0.24759 0.16319-0.41442 0.16319-0.15632 0-0.28662-0.0544-0.3909-0.16319-0.10428-0.1088-0.15632-0.24086-0.15632-0.3962 0-0.15544 0.05464-0.2875 0.16413-0.3963 0.10948-0.1087 0.23718-0.16309 0.3831-0.16309m1.9234 5.1435c0-0.80851 0.23978-1.4609 0.71935-1.9581 0.47947-0.49724 1.0424-0.74586 1.6888-0.74586 0.45865 0 0.85476 0.11138 1.1884 0.33404 0.33356 0.22276 0.50039 0.48948 0.50039 0.80025 0 0.12431-0.04954 0.23052-0.14862 0.31853-0.09898 0.08811-0.22667 0.13216-0.3831 0.13216-0.25019 0-0.42222-0.16578-0.516-0.49724l-0.06255-0.2331c-0.06255-0.20725-0.1355-0.34707-0.21897-0.41957-0.08336-0.0725-0.22407-0.1088-0.42212-0.1088-0.44834 0-0.81052 0.17612-1.0868 0.52836-0.27621 0.35214-0.41432 0.80801-0.41432 1.367 0 0.62155 0.15892 1.1317 0.47687 1.5305 0.31794 0.39878 0.72716 0.59867 1.2275 0.59867 0.31274 0 0.58375-0.07558 0.81313-0.22574 0.22928-0.15016 0.47426-0.41668 0.73497-0.79956l0.15632 0.09348c-0.07296 0.1442-0.13811 0.26652-0.19545 0.36497-0.05734 0.09846-0.15642 0.24066-0.29713 0.42663-0.14071 0.18696-0.28142 0.34011-0.42222 0.45845-0.14071 0.11934-0.32315 0.22774-0.54722 0.32619-0.22417 0.09846-0.46136 0.14818-0.71155 0.14818-0.60457 0-1.1023-0.22774-1.4934-0.6842-0.3909-0.45547-0.58635-1.0402-0.58635-1.7552m4.7067-4.4909v-0.17085c0.62548-0.15544 1.1936-0.31604 1.7045-0.48172l0.04684 0.03102v4.5844l1.5012-1.3368c0.17724-0.14509 0.2659-0.2694 0.2659-0.37293 0-0.0726-0.03913-0.12172-0.11729-0.14768-0.07826-0.02586-0.22678-0.04405-0.44564-0.0544v-0.15534h2.2517v0.17095c-0.16683 0-0.29973 0.0078-0.39881 0.02327-0.09898 0.01551-0.23978 0.06474-0.42223 0.14758-0.18244 0.08293-0.39871 0.22276-0.6489 0.41957-0.25019 0.19681-0.55253 0.45577-0.9069 0.77698l-0.31274 0.29506 1.6731 2.1292c0.22938 0.27945 0.44044 0.47934 0.63329 0.59768 0.19285 0.11934 0.41442 0.18398 0.66461 0.19492v0.17105h-2.4081v-0.17105c0.29182 0 0.43784-0.05171 0.43784-0.15613 0-0.03083-0.01051-0.06663-0.03132-0.1084-0.02082-0.04176-0.05474-0.08851-0.10168-0.14022-0.04684-0.05171-0.07556-0.09248-0.08597-0.12431 0 0-1.5481-2.0506-1.5481-2.0506v1.8805c0 0.25856 0.04173 0.42464 0.1251 0.49724 0.08346 0.0716 0.31794 0.13923 0.70374 0.20188v0.17105h-2.5802v-0.17105c0.3962-0.06265 0.63329-0.12729 0.71155-0.19492 0.07816-0.06663 0.11729-0.24563 0.11729-0.53602v-5.2673c0-0.25896-0.03393-0.43508-0.10168-0.52836-0.06775-0.09318-0.19025-0.13982-0.36748-0.13982-0.10428 0-0.22417 0.0052-0.35968 0.01551" stroke-width=".99762"/>
	<path d="m33.757 34.394h4.0031" fill="none" stroke="#000" stroke-linejoin="bevel" stroke-width=".74821"/>
</svg>
