<?xml version="1.0" encoding="utf-8"?>
<svg xmlns="http://www.w3.org/2000/svg" version="1.1" viewBox="0 0 10 10">
	<title>Three asterisks arranged in an inverted pyramid.</title>
	<path d="m7.25 8.4879q0 0.45967-0.43548 0.45967-0.30847 0-0.74395-0.53225-0.45968-0.56855-0.86492-0.74396l-0.090726-0.0363v0.0847q0 0.73186 0.24798 1.3911 0.10282 0.26613 0.10282 0.39315 0 0.19959-0.14516 0.3508-0.14516 0.14516-0.33871 0.14516-0.1754 0-0.30847-0.13306-0.12702-0.13911-0.12702-0.32057 0-0.21774 0.13911-0.57459 0.23589-0.61089 0.21169-1.0403l-0.012097-0.2117v-0.0847q-0.48992 0.30847-0.64718 0.44758-0.12702 0.11492-0.52016 0.55646-0.26008 0.29637-0.52016 0.29637-0.44758 0-0.44758-0.43549 0-0.41129 0.76815-0.55645 0.67137-0.12097 1.2762-0.49597l-0.13306-0.0847q-0.38105-0.2419-1.0645-0.36891-0.84677-0.16331-0.84677-0.5867 0-0.18145 0.12097-0.30847 0.12702-0.13306 0.30242-0.13306 0.24194 0 0.59274 0.39314 0.49597 0.5625 1.119 0.90726v-0.1633q0-0.50202-0.1875-1.125-0.12702-0.41734-0.12702-0.63508 0-0.42944 0.43548-0.42944 0.1875 0 0.31452 0.13306 0.13306 0.12702 0.13306 0.32057 0 0.20564-0.12702 0.5746-0.21169 0.61693-0.21169 1.0282v0.32057l0.090726-0.0484q0.42944-0.24798 0.88911-0.79234 0.42944-0.50806 0.69556-0.50806 0.44758 0 0.44758 0.47782 0 0.42339-0.63508 0.52016-0.65927 0.10887-1.3851 0.52016l0.096774 0.0665q0.49597 0.30847 1.2036 0.41734 0.73185 0.11492 0.73185 0.54436z"/>
	<path d="m4.5 3.5749q0 0.45968-0.43548 0.45968-0.30847 0-0.74395-0.53226-0.45968-0.56855-0.86492-0.74395l-0.090726-0.0363v0.0847q0 0.73185 0.24798 1.3911 0.10282 0.26613 0.10282 0.39314 0 0.1996-0.14516 0.35081-0.14516 0.14516-0.33871 0.14516-0.1754 0-0.30847-0.13307-0.12702-0.13911-0.12702-0.32056 0-0.21774 0.13911-0.5746 0.23589-0.61088 0.21169-1.0403l-0.012097-0.21169v-0.0847q-0.48992 0.30847-0.64718 0.44758-0.12702 0.11492-0.52016 0.55645-0.26008 0.29637-0.52016 0.29637-0.44758 0-0.44758-0.43548 0-0.41129 0.76815-0.55645 0.67137-0.12097 1.2762-0.49597l-0.13306-0.0847q-0.38105-0.2419-1.0645-0.36892-0.84677-0.16331-0.84677-0.58669 0-0.18145 0.12097-0.30847 0.12702-0.13306 0.30242-0.13306 0.24194 0 0.59274 0.39314 0.49597 0.5625 1.119 0.90726v-0.16331q0-0.50201-0.1875-1.125-0.12702-0.41734-0.12702-0.63508 0-0.42943 0.43548-0.42943 0.1875 0 0.31452 0.13306 0.13306 0.12702 0.13306 0.32056 0 0.20565-0.12702 0.5746-0.21169 0.61694-0.21169 1.0282v0.32056l0.090726-0.0484q0.42944-0.24798 0.88911-0.79233 0.42944-0.50807 0.69556-0.50807 0.44758 0 0.44758 0.47782 0 0.42339-0.63508 0.52017-0.65927 0.10887-1.3851 0.52016l0.096774 0.0665q0.49597 0.30847 1.2036 0.41734 0.73185 0.11492 0.73185 0.54435z"/>
	<path d="m10 3.5749q0 0.45968-0.43548 0.45968-0.30847 0-0.74395-0.53226-0.45968-0.56855-0.86492-0.74395l-0.090726-0.0363v0.0847q0 0.73185 0.24798 1.3911 0.10282 0.26613 0.10282 0.39314 0 0.1996-0.14516 0.35081-0.14516 0.14516-0.33871 0.14516-0.1754 0-0.30847-0.13307-0.12702-0.13911-0.12702-0.32056 0-0.21774 0.13911-0.5746 0.23589-0.61088 0.21169-1.0403l-0.012097-0.21169v-0.0847q-0.48992 0.30847-0.64718 0.44758-0.12702 0.11492-0.52016 0.55645-0.26008 0.29637-0.52016 0.29637-0.44758 0-0.44758-0.43548 0-0.41129 0.76815-0.55645 0.67137-0.12097 1.2762-0.49597l-0.13306-0.08467q-0.38105-0.24193-1.0645-0.36895-0.84677-0.16331-0.84677-0.58669 0-0.18145 0.12097-0.30847 0.12702-0.13306 0.30242-0.13306 0.24194 0 0.59274 0.39314 0.49597 0.5625 1.119 0.90726v-0.16331q0-0.50201-0.1875-1.125-0.12702-0.41734-0.12702-0.63508 0-0.42943 0.43548-0.42943 0.1875 0 0.31452 0.13306 0.13306 0.12702 0.13306 0.32056 0 0.20565-0.12702 0.5746-0.21169 0.61694-0.21169 1.0282v0.32056l0.090726-0.0484q0.42944-0.24798 0.88911-0.79233 0.42944-0.50807 0.69556-0.50807 0.44758 0 0.44758 0.47782 0 0.42339-0.63508 0.52017-0.65927 0.10887-1.3851 0.52016l0.096774 0.0665q0.49597 0.30847 1.2036 0.41734 0.73185 0.11492 0.73185 0.54435z"/>
</svg>
